ISO-10303-21;
HEADER;
FILE_DESCRIPTION((''),'2;1');
FILE_NAME('PIPE_HOLDER','2026-03-02T21:23:24',('dl.liu'),(''),
'CREO PARAMETRIC BY PTC INC, 2018020','CREO PARAMETRIC BY PTC INC, 2018020','');
FILE_SCHEMA(('CONFIG_CONTROL_DESIGN','SHAPE_APPEARANCE_LAYERS_GROUPS'));
ENDSEC;
DATA;
#238=DIRECTION('',(0.E0,1.E0,0.E0));
#239=VECTOR('',#238,5.3E1);
#240=CARTESIAN_POINT('',(4.E0,2.E0,0.E0));
#241=LINE('',#240,#239);
#242=CARTESIAN_POINT('',(0.E0,5.5E1,0.E0));
#243=DIRECTION('',(0.E0,1.E0,0.E0));
#244=DIRECTION('',(-1.E0,0.E0,0.E0));
#245=AXIS2_PLACEMENT_3D('',#242,#243,#244);
#247=DIRECTION('',(0.E0,-1.E0,0.E0));
#248=VECTOR('',#247,5.3E1);
#249=CARTESIAN_POINT('',(-4.E0,5.5E1,0.E0));
#250=LINE('',#249,#248);
#251=CARTESIAN_POINT('',(0.E0,5.5E1,0.E0));
#252=DIRECTION('',(0.E0,1.E0,0.E0));
#253=DIRECTION('',(1.E0,0.E0,0.E0));
#254=AXIS2_PLACEMENT_3D('',#251,#252,#253);
#256=CARTESIAN_POINT('',(4.E1,1.242820323028E2,0.E0));
#257=DIRECTION('',(8.660254037844E-1,5.E-1,0.E0));
#258=DIRECTION('',(5.E-1,-8.660254037844E-1,0.E0));
#259=AXIS2_PLACEMENT_3D('',#256,#257,#258);
#261=CARTESIAN_POINT('',(8.E1,5.5E1,0.E0));
#262=DIRECTION('',(0.E0,0.E0,1.E0));
#263=DIRECTION('',(-5.E-1,8.660254037844E-1,0.E0));
#264=AXIS2_PLACEMENT_3D('',#261,#262,#263);
#266=CARTESIAN_POINT('',(4.E1,1.242820323028E2,0.E0));
#267=DIRECTION('',(8.660254037844E-1,5.E-1,0.E0));
#268=DIRECTION('',(0.E0,0.E0,-1.E0));
#269=AXIS2_PLACEMENT_3D('',#266,#267,#268);
#271=CARTESIAN_POINT('',(4.173205080757E1,1.252820323028E2,0.E0));
#272=DIRECTION('',(8.660254037844E-1,5.E-1,0.E0));
#273=DIRECTION('',(5.E-1,-8.660254037844E-1,0.E0));
#274=AXIS2_PLACEMENT_3D('',#271,#272,#273);
#276=DIRECTION('',(-8.660254037844E-1,-5.E-1,0.E0));
#277=VECTOR('',#276,2.E0);
#278=CARTESIAN_POINT('',(4.373205080757E1,1.218179306876E2,0.E0));
#279=LINE('',#278,#277);
#280=CARTESIAN_POINT('',(4.173205080757E1,1.252820323028E2,0.E0));
#281=DIRECTION('',(-8.660254037844E-1,-5.E-1,0.E0));
#282=DIRECTION('',(5.E-1,-8.660254037844E-1,0.E0));
#283=AXIS2_PLACEMENT_3D('',#280,#281,#282);
#285=DIRECTION('',(-8.660254037844E-1,-5.E-1,0.E0));
#286=VECTOR('',#285,2.E0);
#287=CARTESIAN_POINT('',(3.973205080757E1,1.287461339179E2,0.E0));
#288=LINE('',#287,#286);
#289=CARTESIAN_POINT('',(4.E1,1.242820323028E2,0.E0));
#290=DIRECTION('',(8.660254037844E-1,5.E-1,0.E0));
#291=DIRECTION('',(-5.E-1,8.660254037844E-1,0.E0));
#292=AXIS2_PLACEMENT_3D('',#289,#290,#291);
#294=CARTESIAN_POINT('',(8.E1,5.5E1,0.E0));
#295=DIRECTION('',(0.E0,0.E0,1.E0));
#296=DIRECTION('',(-5.E-1,8.660254037844E-1,0.E0));
#297=AXIS2_PLACEMENT_3D('',#294,#295,#296);
#299=CARTESIAN_POINT('',(4.E1,1.242820323028E2,0.E0));
#300=DIRECTION('',(8.660254037844E-1,5.E-1,0.E0));
#301=DIRECTION('',(0.E0,0.E0,1.E0));
#302=AXIS2_PLACEMENT_3D('',#299,#300,#301);
#304=CARTESIAN_POINT('',(5.197900157353E1,1.311981120859E2,0.E0));
#305=DIRECTION('',(8.660254037844E-1,5.E-1,0.E0));
#306=DIRECTION('',(0.E0,0.E0,1.E0));
#307=AXIS2_PLACEMENT_3D('',#304,#305,#306);
#309=CARTESIAN_POINT('',(5.197900157353E1,1.311981120859E2,0.E0));
#310=DIRECTION('',(8.660254037844E-1,5.E-1,0.E0));
#311=DIRECTION('',(-5.E-1,8.660254037844E-1,0.E0));
#312=AXIS2_PLACEMENT_3D('',#309,#310,#311);
#314=CARTESIAN_POINT('',(3.373205080757E1,1.391384387633E2,0.E0));
#315=DIRECTION('',(0.E0,0.E0,-1.E0));
#316=DIRECTION('',(9.372458971633E-1,3.486690812942E-1,0.E0));
#317=AXIS2_PLACEMENT_3D('',#314,#315,#316);
#319=CARTESIAN_POINT('',(4.973205080757E1,1.114256258422E2,0.E0));
#320=DIRECTION('',(0.E0,0.E0,1.E0));
#321=DIRECTION('',(7.705792304966E-1,6.373442158890E-1,0.E0));
#322=AXIS2_PLACEMENT_3D('',#319,#320,#321);
#324=DIRECTION('',(-8.660254037844E-1,-5.E-1,0.E0));
#325=VECTOR('',#324,2.034200595067E0);
#326=CARTESIAN_POINT('',(5.197900157353E1,1.311981120859E2,-1.4E1));
#327=LINE('',#326,#325);
#328=CARTESIAN_POINT('',(5.021733218181E1,1.301810117883E2,0.E0));
#329=DIRECTION('',(8.660254037844E-1,5.E-1,0.E0));
#330=DIRECTION('',(5.E-1,-8.660254037844E-1,0.E0));
#331=AXIS2_PLACEMENT_3D('',#328,#329,#330);
#333=CARTESIAN_POINT('',(5.021733218181E1,1.301810117883E2,0.E0));
#334=DIRECTION('',(8.660254037844E-1,5.E-1,0.E0));
#335=DIRECTION('',(0.E0,0.E0,-1.E0));
#336=AXIS2_PLACEMENT_3D('',#333,#334,#335);
#338=CARTESIAN_POINT('',(4.173205080757E1,1.252820323028E2,0.E0));
#339=DIRECTION('',(8.660254037844E-1,5.E-1,0.E0));
#340=DIRECTION('',(5.E-1,-8.660254037844E-1,0.E0));
#341=AXIS2_PLACEMENT_3D('',#338,#339,#340);
#343=DIRECTION('',(-8.660254037844E-1,-5.E-1,0.E0));
#344=VECTOR('',#343,2.034200595067E0);
#345=CARTESIAN_POINT('',(5.197900157353E1,1.311981120859E2,1.4E1));
#346=LINE('',#345,#344);
#347=CARTESIAN_POINT('',(5.197900157353E1,1.311981120859E2,0.E0));
#348=DIRECTION('',(8.660254037844E-1,5.E-1,0.E0));
#349=DIRECTION('',(5.E-1,-8.660254037844E-1,0.E0));
#350=AXIS2_PLACEMENT_3D('',#347,#348,#349);
#352=CARTESIAN_POINT('',(5.197900157353E1,1.311981120859E2,0.E0));
#353=DIRECTION('',(8.660254037844E-1,5.E-1,0.E0));
#354=DIRECTION('',(0.E0,0.E0,-1.E0));
#355=AXIS2_PLACEMENT_3D('',#352,#353,#354);
#357=CARTESIAN_POINT('',(5.021733218181E1,1.301810117883E2,0.E0));
#358=DIRECTION('',(8.660254037844E-1,5.E-1,0.E0));
#359=DIRECTION('',(0.E0,0.E0,1.E0));
#360=AXIS2_PLACEMENT_3D('',#357,#358,#359);
#362=CARTESIAN_POINT('',(4.973205080757E1,1.114256258422E2,0.E0));
#363=DIRECTION('',(0.E0,0.E0,-1.E0));
#364=DIRECTION('',(-5.E-1,8.660254037844E-1,0.E0));
#365=AXIS2_PLACEMENT_3D('',#362,#363,#364);
#367=CARTESIAN_POINT('',(4.173205080757E1,1.252820323028E2,0.E0));
#368=DIRECTION('',(-8.660254037844E-1,-5.E-1,0.E0));
#369=DIRECTION('',(5.E-1,-8.660254037844E-1,0.E0));
#370=AXIS2_PLACEMENT_3D('',#367,#368,#369);
#372=CARTESIAN_POINT('',(3.373205080757E1,1.391384387633E2,0.E0));
#373=DIRECTION('',(0.E0,0.E0,1.E0));
#374=DIRECTION('',(5.E-1,-8.660254037844E-1,0.E0));
#375=AXIS2_PLACEMENT_3D('',#372,#373,#374);
#377=CARTESIAN_POINT('',(5.021733218181E1,1.301810117883E2,0.E0));
#378=DIRECTION('',(8.660254037844E-1,5.E-1,0.E0));
#379=DIRECTION('',(-5.E-1,8.660254037844E-1,0.E0));
#380=AXIS2_PLACEMENT_3D('',#377,#378,#379);
#382=DIRECTION('',(8.660254037844E-1,5.E-1,0.E0));
#383=VECTOR('',#382,2.E0);
#384=CARTESIAN_POINT('',(3.7E1,1.294781847255E2,0.E0));
#385=LINE('',#384,#383);
#386=DIRECTION('',(8.660254037844E-1,5.E-1,0.E0));
#387=VECTOR('',#386,2.E0);
#388=CARTESIAN_POINT('',(4.3E1,1.190858798800E2,0.E0));
#389=LINE('',#388,#387);
#390=CARTESIAN_POINT('',(4.E1,1.242820323028E2,0.E0));
#391=DIRECTION('',(8.660254037844E-1,5.E-1,0.E0));
#392=DIRECTION('',(-5.E-1,8.660254037844E-1,0.E0));
#393=AXIS2_PLACEMENT_3D('',#390,#391,#392);
#395=CARTESIAN_POINT('',(4.E1,1.242820323028E2,0.E0));
#396=DIRECTION('',(8.660254037844E-1,5.E-1,0.E0));
#397=DIRECTION('',(0.E0,0.E0,1.E0));
#398=AXIS2_PLACEMENT_3D('',#395,#396,#397);
#400=CARTESIAN_POINT('',(8.E1,5.5E1,0.E0));
#401=DIRECTION('',(0.E0,0.E0,1.E0));
#402=DIRECTION('',(-5.E-1,8.660254037844E-1,0.E0));
#403=AXIS2_PLACEMENT_3D('',#400,#401,#402);
#405=CARTESIAN_POINT('',(4.E1,1.242820323028E2,0.E0));
#406=DIRECTION('',(8.660254037844E-1,5.E-1,0.E0));
#407=DIRECTION('',(5.E-1,-8.660254037844E-1,0.E0));
#408=AXIS2_PLACEMENT_3D('',#405,#406,#407);
#410=CARTESIAN_POINT('',(4.E1,1.242820323028E2,0.E0));
#411=DIRECTION('',(8.660254037844E-1,5.E-1,0.E0));
#412=DIRECTION('',(0.E0,0.E0,-1.E0));
#413=AXIS2_PLACEMENT_3D('',#410,#411,#412);
#415=CARTESIAN_POINT('',(8.E1,5.5E1,0.E0));
#416=DIRECTION('',(0.E0,0.E0,1.E0));
#417=DIRECTION('',(-5.E-1,8.660254037844E-1,0.E0));
#418=AXIS2_PLACEMENT_3D('',#415,#416,#417);
#420=CARTESIAN_POINT('',(0.E0,4.5E1,0.E0));
#421=DIRECTION('',(0.E0,1.E0,0.E0));
#422=DIRECTION('',(1.E0,0.E0,0.E0));
#423=AXIS2_PLACEMENT_3D('',#420,#421,#422);
#425=DIRECTION('',(0.E0,1.E0,0.E0));
#426=VECTOR('',#425,1.E1);
#427=CARTESIAN_POINT('',(6.E0,4.5E1,0.E0));
#428=LINE('',#427,#426);
#429=CARTESIAN_POINT('',(0.E0,5.5E1,0.E0));
#430=DIRECTION('',(0.E0,-1.E0,0.E0));
#431=DIRECTION('',(-1.E0,0.E0,0.E0));
#432=AXIS2_PLACEMENT_3D('',#429,#430,#431);
#434=DIRECTION('',(0.E0,-1.E0,0.E0));
#435=VECTOR('',#434,1.E1);
#436=CARTESIAN_POINT('',(-6.E0,5.5E1,0.E0));
#437=LINE('',#436,#435);
#438=CARTESIAN_POINT('',(-1.863961030679E0,4.5E1,-4.5E0));
#439=DIRECTION('',(0.E0,1.E0,0.E0));
#440=DIRECTION('',(0.E0,0.E0,-1.E0));
#441=AXIS2_PLACEMENT_3D('',#438,#439,#440);
#443=DIRECTION('',(-1.E0,0.E0,0.E0));
#444=VECTOR('',#443,3.727922061358E0);
#445=CARTESIAN_POINT('',(1.863961030679E0,4.5E1,-6.5E0));
#446=LINE('',#445,#444);
#447=CARTESIAN_POINT('',(1.863961030679E0,4.5E1,-4.5E0));
#448=DIRECTION('',(0.E0,1.E0,0.E0));
#449=DIRECTION('',(7.071067811865E-1,0.E0,-7.071067811865E-1));
#450=AXIS2_PLACEMENT_3D('',#447,#448,#449);
#452=DIRECTION('',(-7.071067811865E-1,0.E0,-7.071067811865E-1));
#453=VECTOR('',#452,3.727922061358E0);
#454=CARTESIAN_POINT('',(5.914213562373E0,4.5E1,-3.278174593052E0));
#455=LINE('',#454,#453);
#456=CARTESIAN_POINT('',(4.5E0,4.5E1,-1.863961030679E0));
#457=DIRECTION('',(0.E0,1.E0,0.E0));
#458=DIRECTION('',(1.E0,0.E0,0.E0));
#459=AXIS2_PLACEMENT_3D('',#456,#457,#458);
#461=DIRECTION('',(0.E0,0.E0,-1.E0));
#462=VECTOR('',#461,3.727922061358E0);
#463=CARTESIAN_POINT('',(6.5E0,4.5E1,1.863961030679E0));
#464=LINE('',#463,#462);
#465=CARTESIAN_POINT('',(4.5E0,4.5E1,1.863961030679E0));
#466=DIRECTION('',(0.E0,1.E0,0.E0));
#467=DIRECTION('',(7.071067811865E-1,0.E0,7.071067811865E-1));
#468=AXIS2_PLACEMENT_3D('',#465,#466,#467);
#470=DIRECTION('',(7.071067811865E-1,0.E0,-7.071067811865E-1));
#471=VECTOR('',#470,3.727922061358E0);
#472=CARTESIAN_POINT('',(3.278174593052E0,4.5E1,5.914213562373E0));
#473=LINE('',#472,#471);
#474=CARTESIAN_POINT('',(1.863961030679E0,4.5E1,4.5E0));
#475=DIRECTION('',(0.E0,1.E0,0.E0));
#476=DIRECTION('',(0.E0,0.E0,1.E0));
#477=AXIS2_PLACEMENT_3D('',#474,#475,#476);
#479=DIRECTION('',(1.E0,0.E0,0.E0));
#480=VECTOR('',#479,3.727922061358E0);
#481=CARTESIAN_POINT('',(-1.863961030679E0,4.5E1,6.5E0));
#482=LINE('',#481,#480);
#483=CARTESIAN_POINT('',(-1.863961030679E0,4.5E1,4.5E0));
#484=DIRECTION('',(0.E0,1.E0,0.E0));
#485=DIRECTION('',(-7.071067811865E-1,0.E0,7.071067811865E-1));
#486=AXIS2_PLACEMENT_3D('',#483,#484,#485);
#488=DIRECTION('',(7.071067811865E-1,0.E0,7.071067811865E-1));
#489=VECTOR('',#488,3.727922061358E0);
#490=CARTESIAN_POINT('',(-5.914213562373E0,4.5E1,3.278174593052E0));
#491=LINE('',#490,#489);
#492=CARTESIAN_POINT('',(-4.5E0,4.5E1,1.863961030679E0));
#493=DIRECTION('',(0.E0,1.E0,0.E0));
#494=DIRECTION('',(-1.E0,0.E0,0.E0));
#495=AXIS2_PLACEMENT_3D('',#492,#493,#494);
#497=DIRECTION('',(0.E0,0.E0,1.E0));
#498=VECTOR('',#497,3.727922061358E0);
#499=CARTESIAN_POINT('',(-6.5E0,4.5E1,-1.863961030679E0));
#500=LINE('',#499,#498);
#501=CARTESIAN_POINT('',(-4.5E0,4.5E1,-1.863961030679E0));
#502=DIRECTION('',(0.E0,1.E0,0.E0));
#503=DIRECTION('',(-7.071067811865E-1,0.E0,-7.071067811865E-1));
#504=AXIS2_PLACEMENT_3D('',#501,#502,#503);
#506=DIRECTION('',(-7.071067811865E-1,0.E0,7.071067811865E-1));
#507=VECTOR('',#506,3.727922061358E0);
#508=CARTESIAN_POINT('',(-3.278174593052E0,4.5E1,-5.914213562373E0));
#509=LINE('',#508,#507);
#510=CARTESIAN_POINT('',(0.E0,4.5E1,0.E0));
#511=DIRECTION('',(0.E0,1.E0,0.E0));
#512=DIRECTION('',(-1.E0,0.E0,0.E0));
#513=AXIS2_PLACEMENT_3D('',#510,#511,#512);
#515=CARTESIAN_POINT('',(0.E0,5.5E1,0.E0));
#516=DIRECTION('',(0.E0,-1.E0,0.E0));
#517=DIRECTION('',(1.E0,0.E0,0.E0));
#518=AXIS2_PLACEMENT_3D('',#515,#516,#517);
#520=CARTESIAN_POINT('',(-1.863961030679E0,1.75E1,-4.5E0));
#521=DIRECTION('',(0.E0,-1.E0,0.E0));
#522=DIRECTION('',(-7.071067811865E-1,0.E0,-7.071067811866E-1));
#523=AXIS2_PLACEMENT_3D('',#520,#521,#522);
#525=DIRECTION('',(0.E0,1.E0,0.E0));
#526=VECTOR('',#525,2.75E1);
#527=CARTESIAN_POINT('',(-3.278174593052E0,1.75E1,-5.914213562373E0));
#528=LINE('',#527,#526);
#529=DIRECTION('',(0.E0,1.E0,0.E0));
#530=VECTOR('',#529,2.75E1);
#531=CARTESIAN_POINT('',(-5.914213562373E0,1.75E1,-3.278174593052E0));
#532=LINE('',#531,#530);
#533=DIRECTION('',(0.E0,1.E0,0.E0));
#534=VECTOR('',#533,2.75E1);
#535=CARTESIAN_POINT('',(-6.5E0,1.75E1,-1.863961030679E0));
#536=LINE('',#535,#534);
#537=DIRECTION('',(0.E0,1.E0,0.E0));
#538=VECTOR('',#537,2.75E1);
#539=CARTESIAN_POINT('',(-6.5E0,1.75E1,1.863961030679E0));
#540=LINE('',#539,#538);
#541=DIRECTION('',(0.E0,1.E0,0.E0));
#542=VECTOR('',#541,2.75E1);
#543=CARTESIAN_POINT('',(-5.914213562373E0,1.75E1,3.278174593052E0));
#544=LINE('',#543,#542);
#545=DIRECTION('',(0.E0,1.E0,0.E0));
#546=VECTOR('',#545,2.75E1);
#547=CARTESIAN_POINT('',(-3.278174593052E0,1.75E1,5.914213562373E0));
#548=LINE('',#547,#546);
#549=DIRECTION('',(0.E0,1.E0,0.E0));
#550=VECTOR('',#549,2.75E1);
#551=CARTESIAN_POINT('',(-1.863961030679E0,1.75E1,6.5E0));
#552=LINE('',#551,#550);
#553=DIRECTION('',(0.E0,1.E0,0.E0));
#554=VECTOR('',#553,2.75E1);
#555=CARTESIAN_POINT('',(1.863961030679E0,1.75E1,6.5E0));
#556=LINE('',#555,#554);
#557=DIRECTION('',(0.E0,1.E0,0.E0));
#558=VECTOR('',#557,2.75E1);
#559=CARTESIAN_POINT('',(3.278174593052E0,1.75E1,5.914213562373E0));
#560=LINE('',#559,#558);
#561=DIRECTION('',(0.E0,1.E0,0.E0));
#562=VECTOR('',#561,2.75E1);
#563=CARTESIAN_POINT('',(5.914213562373E0,1.75E1,3.278174593052E0));
#564=LINE('',#563,#562);
#565=DIRECTION('',(0.E0,1.E0,0.E0));
#566=VECTOR('',#565,2.75E1);
#567=CARTESIAN_POINT('',(6.5E0,1.75E1,1.863961030679E0));
#568=LINE('',#567,#566);
#569=DIRECTION('',(0.E0,1.E0,0.E0));
#570=VECTOR('',#569,2.75E1);
#571=CARTESIAN_POINT('',(6.5E0,1.75E1,-1.863961030679E0));
#572=LINE('',#571,#570);
#573=DIRECTION('',(0.E0,1.E0,0.E0));
#574=VECTOR('',#573,2.75E1);
#575=CARTESIAN_POINT('',(5.914213562373E0,1.75E1,-3.278174593052E0));
#576=LINE('',#575,#574);
#577=DIRECTION('',(0.E0,1.E0,0.E0));
#578=VECTOR('',#577,2.75E1);
#579=CARTESIAN_POINT('',(3.278174593052E0,1.75E1,-5.914213562373E0));
#580=LINE('',#579,#578);
#581=DIRECTION('',(0.E0,-1.E0,0.E0));
#582=VECTOR('',#581,2.75E1);
#583=CARTESIAN_POINT('',(-1.863961030679E0,4.5E1,-6.5E0));
#584=LINE('',#583,#582);
#585=DIRECTION('',(0.E0,1.E0,0.E0));
#586=VECTOR('',#585,2.75E1);
#587=CARTESIAN_POINT('',(1.863961030679E0,1.75E1,-6.5E0));
#588=LINE('',#587,#586);
#589=DIRECTION('',(-7.071067811865E-1,0.E0,7.071067811865E-1));
#590=VECTOR('',#589,3.727922061358E0);
#591=CARTESIAN_POINT('',(-3.278174593052E0,1.75E1,-5.914213562373E0));
#592=LINE('',#591,#590);
#593=CARTESIAN_POINT('',(-4.5E0,1.75E1,-1.863961030679E0));
#594=DIRECTION('',(0.E0,1.E0,0.E0));
#595=DIRECTION('',(-7.071067811865E-1,0.E0,-7.071067811865E-1));
#596=AXIS2_PLACEMENT_3D('',#593,#594,#595);
#598=DIRECTION('',(0.E0,0.E0,1.E0));
#599=VECTOR('',#598,3.727922061358E0);
#600=CARTESIAN_POINT('',(-6.5E0,1.75E1,-1.863961030679E0));
#601=LINE('',#600,#599);
#602=CARTESIAN_POINT('',(-4.5E0,1.75E1,1.863961030679E0));
#603=DIRECTION('',(0.E0,1.E0,0.E0));
#604=DIRECTION('',(-1.E0,0.E0,0.E0));
#605=AXIS2_PLACEMENT_3D('',#602,#603,#604);
#607=DIRECTION('',(7.071067811865E-1,0.E0,7.071067811865E-1));
#608=VECTOR('',#607,3.727922061358E0);
#609=CARTESIAN_POINT('',(-5.914213562373E0,1.75E1,3.278174593052E0));
#610=LINE('',#609,#608);
#611=CARTESIAN_POINT('',(-1.863961030679E0,1.75E1,4.5E0));
#612=DIRECTION('',(0.E0,1.E0,0.E0));
#613=DIRECTION('',(-7.071067811865E-1,0.E0,7.071067811865E-1));
#614=AXIS2_PLACEMENT_3D('',#611,#612,#613);
#616=DIRECTION('',(1.E0,0.E0,0.E0));
#617=VECTOR('',#616,3.727922061358E0);
#618=CARTESIAN_POINT('',(-1.863961030679E0,1.75E1,6.5E0));
#619=LINE('',#618,#617);
#620=CARTESIAN_POINT('',(1.863961030679E0,1.75E1,4.5E0));
#621=DIRECTION('',(0.E0,1.E0,0.E0));
#622=DIRECTION('',(0.E0,0.E0,1.E0));
#623=AXIS2_PLACEMENT_3D('',#620,#621,#622);
#625=DIRECTION('',(7.071067811865E-1,0.E0,-7.071067811865E-1));
#626=VECTOR('',#625,3.727922061358E0);
#627=CARTESIAN_POINT('',(3.278174593052E0,1.75E1,5.914213562373E0));
#628=LINE('',#627,#626);
#629=CARTESIAN_POINT('',(4.5E0,1.75E1,1.863961030679E0));
#630=DIRECTION('',(0.E0,1.E0,0.E0));
#631=DIRECTION('',(7.071067811865E-1,0.E0,7.071067811865E-1));
#632=AXIS2_PLACEMENT_3D('',#629,#630,#631);
#634=DIRECTION('',(0.E0,0.E0,-1.E0));
#635=VECTOR('',#634,3.727922061358E0);
#636=CARTESIAN_POINT('',(6.5E0,1.75E1,1.863961030679E0));
#637=LINE('',#636,#635);
#638=CARTESIAN_POINT('',(4.5E0,1.75E1,-1.863961030679E0));
#639=DIRECTION('',(0.E0,1.E0,0.E0));
#640=DIRECTION('',(1.E0,0.E0,0.E0));
#641=AXIS2_PLACEMENT_3D('',#638,#639,#640);
#643=DIRECTION('',(-7.071067811865E-1,0.E0,-7.071067811865E-1));
#644=VECTOR('',#643,3.727922061358E0);
#645=CARTESIAN_POINT('',(5.914213562373E0,1.75E1,-3.278174593052E0));
#646=LINE('',#645,#644);
#647=CARTESIAN_POINT('',(1.863961030679E0,1.75E1,-4.5E0));
#648=DIRECTION('',(0.E0,1.E0,0.E0));
#649=DIRECTION('',(7.071067811865E-1,0.E0,-7.071067811866E-1));
#650=AXIS2_PLACEMENT_3D('',#647,#648,#649);
#652=DIRECTION('',(-1.E0,0.E0,0.E0));
#653=VECTOR('',#652,3.727922061358E0);
#654=CARTESIAN_POINT('',(1.863961030679E0,1.75E1,-6.5E0));
#655=LINE('',#654,#653);
#656=CARTESIAN_POINT('',(0.E0,1.75E1,0.E0));
#657=DIRECTION('',(0.E0,-1.E0,0.E0));
#658=DIRECTION('',(1.E0,0.E0,0.E0));
#659=AXIS2_PLACEMENT_3D('',#656,#657,#658);
#661=CARTESIAN_POINT('',(0.E0,1.75E1,0.E0));
#662=DIRECTION('',(0.E0,-1.E0,0.E0));
#663=DIRECTION('',(-1.E0,0.E0,0.E0));
#664=AXIS2_PLACEMENT_3D('',#661,#662,#663);
#666=DIRECTION('',(0.E0,-1.E0,0.E0));
#667=VECTOR('',#666,1.55E1);
#668=CARTESIAN_POINT('',(8.5E0,1.75E1,0.E0));
#669=LINE('',#668,#667);
#670=DIRECTION('',(0.E0,-1.E0,0.E0));
#671=VECTOR('',#670,1.55E1);
#672=CARTESIAN_POINT('',(-8.5E0,1.75E1,0.E0));
#673=LINE('',#672,#671);
#674=CARTESIAN_POINT('',(0.E0,2.E0,0.E0));
#675=DIRECTION('',(0.E0,-1.E0,0.E0));
#676=DIRECTION('',(1.E0,0.E0,0.E0));
#677=AXIS2_PLACEMENT_3D('',#674,#675,#676);
#679=CARTESIAN_POINT('',(0.E0,2.E0,0.E0));
#680=DIRECTION('',(0.E0,-1.E0,0.E0));
#681=DIRECTION('',(-1.E0,0.E0,0.E0));
#682=AXIS2_PLACEMENT_3D('',#679,#680,#681);
#684=CARTESIAN_POINT('',(0.E0,2.E0,0.E0));
#685=DIRECTION('',(0.E0,-1.E0,0.E0));
#686=DIRECTION('',(1.E0,0.E0,0.E0));
#687=AXIS2_PLACEMENT_3D('',#684,#685,#686);
#689=CARTESIAN_POINT('',(0.E0,2.E0,0.E0));
#690=DIRECTION('',(0.E0,-1.E0,0.E0));
#691=DIRECTION('',(-1.E0,0.E0,0.E0));
#692=AXIS2_PLACEMENT_3D('',#689,#690,#691);
#694=CARTESIAN_POINT('',(4.E0,5.5E1,0.E0));
#695=CARTESIAN_POINT('',(-4.E0,5.5E1,0.E0));
#696=VERTEX_POINT('',#694);
#697=VERTEX_POINT('',#695);
#698=CARTESIAN_POINT('',(6.E0,5.5E1,0.E0));
#699=CARTESIAN_POINT('',(-6.E0,5.5E1,0.E0));
#700=VERTEX_POINT('',#698);
#701=VERTEX_POINT('',#699);
#702=CARTESIAN_POINT('',(4.473205080757E1,1.200858798800E2,0.E0));
#703=CARTESIAN_POINT('',(3.873205080757E1,1.304781847255E2,0.E0));
#704=VERTEX_POINT('',#702);
#705=VERTEX_POINT('',#703);
#706=CARTESIAN_POINT('',(4.373205080757E1,1.218179306876E2,0.E0));
#707=CARTESIAN_POINT('',(3.973205080757E1,1.287461339179E2,0.E0));
#708=VERTEX_POINT('',#706);
#709=VERTEX_POINT('',#707);
#710=CARTESIAN_POINT('',(4.3E1,1.190858798800E2,0.E0));
#711=CARTESIAN_POINT('',(4.E1,1.242820323028E2,-6.E0));
#712=VERTEX_POINT('',#710);
#713=VERTEX_POINT('',#711);
#714=CARTESIAN_POINT('',(3.7E1,1.294781847255E2,0.E0));
#715=VERTEX_POINT('',#714);
#716=CARTESIAN_POINT('',(4.2E1,1.208179306876E2,0.E0));
#717=CARTESIAN_POINT('',(4.E1,1.242820323028E2,-4.E0));
#718=VERTEX_POINT('',#716);
#719=VERTEX_POINT('',#717);
#720=CARTESIAN_POINT('',(3.8E1,1.277461339179E2,0.E0));
#721=VERTEX_POINT('',#720);
#722=CARTESIAN_POINT('',(4.E1,1.242820323028E2,6.E0));
#723=VERTEX_POINT('',#722);
#724=CARTESIAN_POINT('',(4.E1,1.242820323028E2,4.E0));
#725=VERTEX_POINT('',#724);
#726=CARTESIAN_POINT('',(4.E0,2.E0,0.E0));
#727=CARTESIAN_POINT('',(-4.E0,2.E0,0.E0));
#728=VERTEX_POINT('',#726);
#729=VERTEX_POINT('',#727);
#730=CARTESIAN_POINT('',(5.721733218181E1,1.180566561353E2,0.E0));
#731=CARTESIAN_POINT('',(5.021733218181E1,1.301810117883E2,-1.4E1));
#732=VERTEX_POINT('',#730);
#733=VERTEX_POINT('',#731);
#734=CARTESIAN_POINT('',(4.321733218181E1,1.423053674413E2,0.E0));
#735=VERTEX_POINT('',#734);
#736=CARTESIAN_POINT('',(5.897900157353E1,1.190737564329E2,0.E0));
#737=CARTESIAN_POINT('',(5.197900157353E1,1.311981120859E2,-1.4E1));
#738=VERTEX_POINT('',#736);
#739=VERTEX_POINT('',#737);
#740=CARTESIAN_POINT('',(4.497900157353E1,1.433224677388E2,0.E0));
#741=VERTEX_POINT('',#740);
#742=CARTESIAN_POINT('',(5.021733218181E1,1.301810117883E2,1.4E1));
#743=VERTEX_POINT('',#742);
#744=CARTESIAN_POINT('',(5.197900157353E1,1.311981120859E2,1.4E1));
#745=VERTEX_POINT('',#744);
#746=CARTESIAN_POINT('',(6.E0,4.5E1,0.E0));
#747=CARTESIAN_POINT('',(-6.E0,4.5E1,0.E0));
#748=VERTEX_POINT('',#746);
#749=VERTEX_POINT('',#747);
#750=CARTESIAN_POINT('',(-1.863961030679E0,4.5E1,-6.5E0));
#751=CARTESIAN_POINT('',(-3.278174593052E0,4.5E1,-5.914213562373E0));
#752=VERTEX_POINT('',#750);
#753=VERTEX_POINT('',#751);
#754=CARTESIAN_POINT('',(-5.914213562373E0,4.5E1,-3.278174593052E0));
#755=CARTESIAN_POINT('',(-6.5E0,4.5E1,-1.863961030679E0));
#756=VERTEX_POINT('',#754);
#757=VERTEX_POINT('',#755);
#758=CARTESIAN_POINT('',(-6.5E0,4.5E1,1.863961030679E0));
#759=CARTESIAN_POINT('',(-5.914213562373E0,4.5E1,3.278174593052E0));
#760=VERTEX_POINT('',#758);
#761=VERTEX_POINT('',#759);
#762=CARTESIAN_POINT('',(3.278174593052E0,4.5E1,-5.914213562373E0));
#763=CARTESIAN_POINT('',(1.863961030679E0,4.5E1,-6.5E0));
#764=VERTEX_POINT('',#762);
#765=VERTEX_POINT('',#763);
#766=CARTESIAN_POINT('',(6.5E0,4.5E1,-1.863961030679E0));
#767=CARTESIAN_POINT('',(5.914213562373E0,4.5E1,-3.278174593052E0));
#768=VERTEX_POINT('',#766);
#769=VERTEX_POINT('',#767);
#770=CARTESIAN_POINT('',(5.914213562373E0,4.5E1,3.278174593052E0));
#771=CARTESIAN_POINT('',(6.5E0,4.5E1,1.863961030679E0));
#772=VERTEX_POINT('',#770);
#773=VERTEX_POINT('',#771);
#774=CARTESIAN_POINT('',(1.863961030679E0,4.5E1,6.5E0));
#775=CARTESIAN_POINT('',(3.278174593052E0,4.5E1,5.914213562373E0));
#776=VERTEX_POINT('',#774);
#777=VERTEX_POINT('',#775);
#778=CARTESIAN_POINT('',(-3.278174593052E0,4.5E1,5.914213562373E0));
#779=CARTESIAN_POINT('',(-1.863961030679E0,4.5E1,6.5E0));
#780=VERTEX_POINT('',#778);
#781=VERTEX_POINT('',#779);
#782=CARTESIAN_POINT('',(8.5E0,1.75E1,0.E0));
#783=CARTESIAN_POINT('',(-8.5E0,1.75E1,0.E0));
#784=VERTEX_POINT('',#782);
#785=VERTEX_POINT('',#783);
#786=CARTESIAN_POINT('',(8.5E0,2.E0,0.E0));
#787=CARTESIAN_POINT('',(-8.5E0,2.E0,0.E0));
#788=VERTEX_POINT('',#786);
#789=VERTEX_POINT('',#787);
#790=CARTESIAN_POINT('',(-3.278174593052E0,1.75E1,-5.914213562373E0));
#791=CARTESIAN_POINT('',(-5.914213562373E0,1.75E1,-3.278174593052E0));
#792=VERTEX_POINT('',#790);
#793=VERTEX_POINT('',#791);
#794=CARTESIAN_POINT('',(-6.5E0,1.75E1,-1.863961030679E0));
#795=VERTEX_POINT('',#794);
#796=CARTESIAN_POINT('',(-6.5E0,1.75E1,1.863961030679E0));
#797=VERTEX_POINT('',#796);
#798=CARTESIAN_POINT('',(-5.914213562373E0,1.75E1,3.278174593052E0));
#799=VERTEX_POINT('',#798);
#800=CARTESIAN_POINT('',(-3.278174593052E0,1.75E1,5.914213562373E0));
#801=VERTEX_POINT('',#800);
#802=CARTESIAN_POINT('',(-1.863961030679E0,1.75E1,6.5E0));
#803=VERTEX_POINT('',#802);
#804=CARTESIAN_POINT('',(1.863961030679E0,1.75E1,6.5E0));
#805=VERTEX_POINT('',#804);
#806=CARTESIAN_POINT('',(3.278174593052E0,1.75E1,5.914213562373E0));
#807=VERTEX_POINT('',#806);
#808=CARTESIAN_POINT('',(5.914213562373E0,1.75E1,3.278174593052E0));
#809=VERTEX_POINT('',#808);
#810=CARTESIAN_POINT('',(6.5E0,1.75E1,1.863961030679E0));
#811=VERTEX_POINT('',#810);
#812=CARTESIAN_POINT('',(6.5E0,1.75E1,-1.863961030679E0));
#813=VERTEX_POINT('',#812);
#814=CARTESIAN_POINT('',(5.914213562373E0,1.75E1,-3.278174593052E0));
#815=VERTEX_POINT('',#814);
#816=CARTESIAN_POINT('',(3.278174593052E0,1.75E1,-5.914213562373E0));
#817=VERTEX_POINT('',#816);
#818=CARTESIAN_POINT('',(1.863961030679E0,1.75E1,-6.5E0));
#819=VERTEX_POINT('',#818);
#820=CARTESIAN_POINT('',(-1.863961030679E0,1.75E1,-6.5E0));
#821=VERTEX_POINT('',#820);
#822=CARTESIAN_POINT('',(0.E0,0.E0,0.E0));
#823=DIRECTION('',(0.E0,1.E0,0.E0));
#824=DIRECTION('',(1.E0,0.E0,0.E0));
#825=AXIS2_PLACEMENT_3D('',#822,#823,#824);
#826=CYLINDRICAL_SURFACE('',#825,4.E0);
#828=ORIENTED_EDGE('',*,*,#827,.T.);
#830=ORIENTED_EDGE('',*,*,#829,.F.);
#832=ORIENTED_EDGE('',*,*,#831,.T.);
#834=ORIENTED_EDGE('',*,*,#833,.F.);
#835=EDGE_LOOP('',(#828,#830,#832,#834));
#836=FACE_OUTER_BOUND('',#835,.F.);
#837=ADVANCED_FACE('',(#836),#826,.F.);
#838=CARTESIAN_POINT('',(0.E0,0.E0,0.E0));
#839=DIRECTION('',(0.E0,1.E0,0.E0));
#840=DIRECTION('',(1.E0,0.E0,0.E0));
#841=AXIS2_PLACEMENT_3D('',#838,#839,#840);
#842=CYLINDRICAL_SURFACE('',#841,4.E0);
#843=ORIENTED_EDGE('',*,*,#831,.F.);
#845=ORIENTED_EDGE('',*,*,#844,.F.);
#846=ORIENTED_EDGE('',*,*,#827,.F.);
#848=ORIENTED_EDGE('',*,*,#847,.F.);
#849=EDGE_LOOP('',(#843,#845,#846,#848));
#850=FACE_OUTER_BOUND('',#849,.F.);
#851=ADVANCED_FACE('',(#850),#842,.F.);
#852=CARTESIAN_POINT('',(8.E1,5.5E1,0.E0));
#853=DIRECTION('',(0.E0,0.E0,1.E0));
#854=DIRECTION('',(5.E-1,-8.660254037844E-1,0.E0));
#855=AXIS2_PLACEMENT_3D('',#852,#853,#854);
#856=TOROIDAL_SURFACE('',#855,8.E1,4.E0);
#858=ORIENTED_EDGE('',*,*,#857,.F.);
#860=ORIENTED_EDGE('',*,*,#859,.T.);
#861=ORIENTED_EDGE('',*,*,#844,.T.);
#863=ORIENTED_EDGE('',*,*,#862,.F.);
#865=ORIENTED_EDGE('',*,*,#864,.F.);
#866=EDGE_LOOP('',(#858,#860,#861,#863,#865));
#867=FACE_OUTER_BOUND('',#866,.F.);
#868=ADVANCED_FACE('',(#867),#856,.F.);
#869=CARTESIAN_POINT('',(3.644185842870E1,1.222277383088E2,0.E0));
#870=DIRECTION('',(8.660254037844E-1,5.E-1,0.E0));
#871=DIRECTION('',(5.E-1,-8.660254037844E-1,0.E0));
#872=AXIS2_PLACEMENT_3D('',#869,#870,#871);
#873=CYLINDRICAL_SURFACE('',#872,4.E0);
#874=ORIENTED_EDGE('',*,*,#857,.T.);
#875=ORIENTED_EDGE('',*,*,#864,.T.);
#877=ORIENTED_EDGE('',*,*,#876,.F.);
#879=ORIENTED_EDGE('',*,*,#878,.F.);
#881=ORIENTED_EDGE('',*,*,#880,.T.);
#882=EDGE_LOOP('',(#874,#875,#877,#879,#881));
#883=FACE_OUTER_BOUND('',#882,.F.);
#884=ADVANCED_FACE('',(#883),#873,.F.);
#885=CARTESIAN_POINT('',(3.644185842870E1,1.222277383088E2,0.E0));
#886=DIRECTION('',(8.660254037844E-1,5.E-1,0.E0));
#887=DIRECTION('',(5.E-1,-8.660254037844E-1,0.E0));
#888=AXIS2_PLACEMENT_3D('',#885,#886,#887);
#889=CYLINDRICAL_SURFACE('',#888,4.E0);
#891=ORIENTED_EDGE('',*,*,#890,.T.);
#893=ORIENTED_EDGE('',*,*,#892,.T.);
#894=ORIENTED_EDGE('',*,*,#880,.F.);
#896=ORIENTED_EDGE('',*,*,#895,.T.);
#897=ORIENTED_EDGE('',*,*,#876,.T.);
#898=EDGE_LOOP('',(#891,#893,#894,#896,#897));
#899=FACE_OUTER_BOUND('',#898,.F.);
#900=ADVANCED_FACE('',(#899),#889,.F.);
#901=CARTESIAN_POINT('',(8.E1,5.5E1,0.E0));
#902=DIRECTION('',(0.E0,0.E0,1.E0));
#903=DIRECTION('',(5.E-1,-8.660254037844E-1,0.E0));
#904=AXIS2_PLACEMENT_3D('',#901,#902,#903);
#905=TOROIDAL_SURFACE('',#904,8.E1,4.E0);
#906=ORIENTED_EDGE('',*,*,#890,.F.);
#907=ORIENTED_EDGE('',*,*,#862,.T.);
#908=ORIENTED_EDGE('',*,*,#829,.T.);
#909=ORIENTED_EDGE('',*,*,#859,.F.);
#910=ORIENTED_EDGE('',*,*,#892,.F.);
#911=EDGE_LOOP('',(#906,#907,#908,#909,#910));
#912=FACE_OUTER_BOUND('',#911,.F.);
#913=ADVANCED_FACE('',(#912),#905,.F.);
#914=CARTESIAN_POINT('',(4.173205080757E1,1.252820323028E2,0.E0));
#915=DIRECTION('',(8.660254037844E-1,5.E-1,0.E0));
#916=DIRECTION('',(5.E-1,-8.660254037844E-1,0.E0));
#917=AXIS2_PLACEMENT_3D('',#914,#915,#916);
#918=TOROIDAL_SURFACE('',#917,1.6E1,1.2E1);
#920=ORIENTED_EDGE('',*,*,#919,.F.);
#922=ORIENTED_EDGE('',*,*,#921,.F.);
#924=ORIENTED_EDGE('',*,*,#923,.T.);
#925=ORIENTED_EDGE('',*,*,#895,.F.);
#927=ORIENTED_EDGE('',*,*,#926,.F.);
#928=EDGE_LOOP('',(#920,#922,#924,#925,#927));
#929=FACE_OUTER_BOUND('',#928,.F.);
#930=ADVANCED_FACE('',(#929),#918,.T.);
#931=CARTESIAN_POINT('',(5.212435565298E1,1.312820323028E2,0.E0));
#932=DIRECTION('',(8.660254037844E-1,5.E-1,0.E0));
#933=DIRECTION('',(0.E0,0.E0,-1.E0));
#934=AXIS2_PLACEMENT_3D('',#931,#932,#933);
#935=CYLINDRICAL_SURFACE('',#934,1.4E1);
#937=ORIENTED_EDGE('',*,*,#936,.F.);
#939=ORIENTED_EDGE('',*,*,#938,.F.);
#941=ORIENTED_EDGE('',*,*,#940,.F.);
#942=ORIENTED_EDGE('',*,*,#919,.T.);
#944=ORIENTED_EDGE('',*,*,#943,.T.);
#946=ORIENTED_EDGE('',*,*,#945,.T.);
#947=EDGE_LOOP('',(#937,#939,#941,#942,#944,#946));
#948=FACE_OUTER_BOUND('',#947,.F.);
#949=ADVANCED_FACE('',(#948),#935,.T.);
#950=CARTESIAN_POINT('',(4.173205080757E1,1.252820323028E2,0.E0));
#951=DIRECTION('',(8.660254037844E-1,5.E-1,0.E0));
#952=DIRECTION('',(5.E-1,-8.660254037844E-1,0.E0));
#953=AXIS2_PLACEMENT_3D('',#950,#951,#952);
#954=TOROIDAL_SURFACE('',#953,1.6E1,1.E1);
#955=ORIENTED_EDGE('',*,*,#936,.T.);
#957=ORIENTED_EDGE('',*,*,#956,.T.);
#959=ORIENTED_EDGE('',*,*,#958,.F.);
#961=ORIENTED_EDGE('',*,*,#960,.F.);
#963=ORIENTED_EDGE('',*,*,#962,.T.);
#964=EDGE_LOOP('',(#955,#957,#959,#961,#963));
#965=FACE_OUTER_BOUND('',#964,.F.);
#966=ADVANCED_FACE('',(#965),#954,.F.);
#967=CARTESIAN_POINT('',(5.212435565298E1,1.312820323028E2,0.E0));
#968=DIRECTION('',(8.660254037844E-1,5.E-1,0.E0));
#969=DIRECTION('',(0.E0,0.E0,-1.E0));
#970=AXIS2_PLACEMENT_3D('',#967,#968,#969);
#971=CYLINDRICAL_SURFACE('',#970,1.4E1);
#972=ORIENTED_EDGE('',*,*,#956,.F.);
#973=ORIENTED_EDGE('',*,*,#945,.F.);
#975=ORIENTED_EDGE('',*,*,#974,.T.);
#976=ORIENTED_EDGE('',*,*,#921,.T.);
#977=ORIENTED_EDGE('',*,*,#940,.T.);
#979=ORIENTED_EDGE('',*,*,#978,.F.);
#980=EDGE_LOOP('',(#972,#973,#975,#976,#977,#979));
#981=FACE_OUTER_BOUND('',#980,.F.);
#982=ADVANCED_FACE('',(#981),#971,.T.);
#983=CARTESIAN_POINT('',(4.173205080757E1,1.252820323028E2,0.E0));
#984=DIRECTION('',(8.660254037844E-1,5.E-1,0.E0));
#985=DIRECTION('',(5.E-1,-8.660254037844E-1,0.E0));
#986=AXIS2_PLACEMENT_3D('',#983,#984,#985);
#987=TOROIDAL_SURFACE('',#986,1.6E1,1.2E1);
#988=ORIENTED_EDGE('',*,*,#943,.F.);
#989=ORIENTED_EDGE('',*,*,#926,.T.);
#990=ORIENTED_EDGE('',*,*,#878,.T.);
#991=ORIENTED_EDGE('',*,*,#923,.F.);
#992=ORIENTED_EDGE('',*,*,#974,.F.);
#993=EDGE_LOOP('',(#988,#989,#990,#991,#992));
#994=FACE_OUTER_BOUND('',#993,.F.);
#995=ADVANCED_FACE('',(#994),#987,.T.);
#996=CARTESIAN_POINT('',(4.173205080757E1,1.252820323028E2,0.E0));
#997=DIRECTION('',(8.660254037844E-1,5.E-1,0.E0));
#998=DIRECTION('',(5.E-1,-8.660254037844E-1,0.E0));
#999=AXIS2_PLACEMENT_3D('',#996,#997,#998);
#1000=TOROIDAL_SURFACE('',#999,1.6E1,1.E1);
#1001=ORIENTED_EDGE('',*,*,#938,.T.);
#1002=ORIENTED_EDGE('',*,*,#962,.F.);
#1004=ORIENTED_EDGE('',*,*,#1003,.T.);
#1005=ORIENTED_EDGE('',*,*,#958,.T.);
#1006=ORIENTED_EDGE('',*,*,#978,.T.);
#1007=EDGE_LOOP('',(#1001,#1002,#1004,#1005,#1006));
#1008=FACE_OUTER_BOUND('',#1007,.F.);
#1009=ADVANCED_FACE('',(#1008),#1000,.F.);
#1010=CARTESIAN_POINT('',(3.644185842870E1,1.222277383088E2,0.E0));
#1011=DIRECTION('',(8.660254037844E-1,5.E-1,0.E0));
#1012=DIRECTION('',(5.E-1,-8.660254037844E-1,0.E0));
#1013=AXIS2_PLACEMENT_3D('',#1010,#1011,#1012);
#1014=CYLINDRICAL_SURFACE('',#1013,6.E0);
#1016=ORIENTED_EDGE('',*,*,#1015,.F.);
#1018=ORIENTED_EDGE('',*,*,#1017,.T.);
#1019=ORIENTED_EDGE('',*,*,#1003,.F.);
#1021=ORIENTED_EDGE('',*,*,#1020,.F.);
#1023=ORIENTED_EDGE('',*,*,#1022,.F.);
#1024=EDGE_LOOP('',(#1016,#1018,#1019,#1021,#1023));
#1025=FACE_OUTER_BOUND('',#1024,.F.);
#1026=ADVANCED_FACE('',(#1025),#1014,.T.);
#1027=CARTESIAN_POINT('',(8.E1,5.5E1,0.E0));
#1028=DIRECTION('',(0.E0,0.E0,1.E0));
#1029=DIRECTION('',(5.E-1,-8.660254037844E-1,0.E0));
#1030=AXIS2_PLACEMENT_3D('',#1027,#1028,#1029);
#1031=TOROIDAL_SURFACE('',#1030,8.E1,6.E0);
#1032=ORIENTED_EDGE('',*,*,#1015,.T.);
#1033=ORIENTED_EDGE('',*,*,#1022,.T.);
#1035=ORIENTED_EDGE('',*,*,#1034,.T.);
#1037=ORIENTED_EDGE('',*,*,#1036,.T.);
#1039=ORIENTED_EDGE('',*,*,#1038,.F.);
#1040=EDGE_LOOP('',(#1032,#1033,#1035,#1037,#1039));
#1041=FACE_OUTER_BOUND('',#1040,.F.);
#1042=ADVANCED_FACE('',(#1041),#1031,.T.);
#1043=CARTESIAN_POINT('',(8.E1,5.5E1,0.E0));
#1044=DIRECTION('',(0.E0,0.E0,1.E0));
#1045=DIRECTION('',(5.E-1,-8.660254037844E-1,0.E0));
#1046=AXIS2_PLACEMENT_3D('',#1043,#1044,#1045);
#1047=TOROIDAL_SURFACE('',#1046,8.E1,6.E0);
#1049=ORIENTED_EDGE('',*,*,#1048,.T.);
#1051=ORIENTED_EDGE('',*,*,#1050,.T.);
#1052=ORIENTED_EDGE('',*,*,#1038,.T.);
#1054=ORIENTED_EDGE('',*,*,#1053,.T.);
#1055=ORIENTED_EDGE('',*,*,#1034,.F.);
#1056=EDGE_LOOP('',(#1049,#1051,#1052,#1054,#1055));
#1057=FACE_OUTER_BOUND('',#1056,.F.);
#1058=ADVANCED_FACE('',(#1057),#1047,.T.);
#1059=CARTESIAN_POINT('',(3.644185842870E1,1.222277383088E2,0.E0));
#1060=DIRECTION('',(8.660254037844E-1,5.E-1,0.E0));
#1061=DIRECTION('',(5.E-1,-8.660254037844E-1,0.E0));
#1062=AXIS2_PLACEMENT_3D('',#1059,#1060,#1061);
#1063=CYLINDRICAL_SURFACE('',#1062,6.E0);
#1064=ORIENTED_EDGE('',*,*,#1048,.F.);
#1065=ORIENTED_EDGE('',*,*,#1020,.T.);
#1066=ORIENTED_EDGE('',*,*,#960,.T.);
#1067=ORIENTED_EDGE('',*,*,#1017,.F.);
#1068=ORIENTED_EDGE('',*,*,#1050,.F.);
#1069=EDGE_LOOP('',(#1064,#1065,#1066,#1067,#1068));
#1070=FACE_OUTER_BOUND('',#1069,.F.);
#1071=ADVANCED_FACE('',(#1070),#1063,.T.);
#1072=CARTESIAN_POINT('',(0.E0,0.E0,0.E0));
#1073=DIRECTION('',(0.E0,1.E0,0.E0));
#1074=DIRECTION('',(1.E0,0.E0,0.E0));
#1075=AXIS2_PLACEMENT_3D('',#1072,#1073,#1074);
#1076=CYLINDRICAL_SURFACE('',#1075,6.E0);
#1078=ORIENTED_EDGE('',*,*,#1077,.F.);
#1080=ORIENTED_EDGE('',*,*,#1079,.T.);
#1081=ORIENTED_EDGE('',*,*,#1053,.F.);
#1083=ORIENTED_EDGE('',*,*,#1082,.T.);
#1084=EDGE_LOOP('',(#1078,#1080,#1081,#1083));
#1085=FACE_OUTER_BOUND('',#1084,.F.);
#1086=ADVANCED_FACE('',(#1085),#1076,.T.);
#1087=CARTESIAN_POINT('',(0.E0,4.5E1,0.E0));
#1088=DIRECTION('',(0.E0,1.E0,0.E0));
#1089=DIRECTION('',(0.E0,0.E0,-1.E0));
#1090=AXIS2_PLACEMENT_3D('',#1087,#1088,#1089);
#1091=PLANE('',#1090);
#1093=ORIENTED_EDGE('',*,*,#1092,.F.);
#1095=ORIENTED_EDGE('',*,*,#1094,.F.);
#1097=ORIENTED_EDGE('',*,*,#1096,.F.);
#1099=ORIENTED_EDGE('',*,*,#1098,.F.);
#1101=ORIENTED_EDGE('',*,*,#1100,.F.);
#1103=ORIENTED_EDGE('',*,*,#1102,.F.);
#1105=ORIENTED_EDGE('',*,*,#1104,.F.);
#1107=ORIENTED_EDGE('',*,*,#1106,.F.);
#1109=ORIENTED_EDGE('',*,*,#1108,.F.);
#1111=ORIENTED_EDGE('',*,*,#1110,.F.);
#1113=ORIENTED_EDGE('',*,*,#1112,.F.);
#1115=ORIENTED_EDGE('',*,*,#1114,.F.);
#1117=ORIENTED_EDGE('',*,*,#1116,.F.);
#1119=ORIENTED_EDGE('',*,*,#1118,.F.);
#1121=ORIENTED_EDGE('',*,*,#1120,.F.);
#1123=ORIENTED_EDGE('',*,*,#1122,.F.);
#1124=EDGE_LOOP('',(#1093,#1095,#1097,#1099,#1101,#1103,#1105,#1107,#1109,#1111,
#1113,#1115,#1117,#1119,#1121,#1123));
#1125=FACE_OUTER_BOUND('',#1124,.F.);
#1126=ORIENTED_EDGE('',*,*,#1077,.T.);
#1128=ORIENTED_EDGE('',*,*,#1127,.T.);
#1129=EDGE_LOOP('',(#1126,#1128));
#1130=FACE_BOUND('',#1129,.F.);
#1131=ADVANCED_FACE('',(#1125,#1130),#1091,.T.);
#1132=CARTESIAN_POINT('',(0.E0,0.E0,0.E0));
#1133=DIRECTION('',(0.E0,1.E0,0.E0));
#1134=DIRECTION('',(1.E0,0.E0,0.E0));
#1135=AXIS2_PLACEMENT_3D('',#1132,#1133,#1134);
#1136=CYLINDRICAL_SURFACE('',#1135,6.E0);
#1137=ORIENTED_EDGE('',*,*,#1127,.F.);
#1138=ORIENTED_EDGE('',*,*,#1082,.F.);
#1139=ORIENTED_EDGE('',*,*,#1036,.F.);
#1140=ORIENTED_EDGE('',*,*,#1079,.F.);
#1141=EDGE_LOOP('',(#1137,#1138,#1139,#1140));
#1142=FACE_OUTER_BOUND('',#1141,.F.);
#1143=ADVANCED_FACE('',(#1142),#1136,.T.);
#1144=CARTESIAN_POINT('',(-1.863961030679E0,3.377962160419E2,-4.5E0));
#1145=DIRECTION('',(0.E0,-1.E0,0.E0));
#1146=DIRECTION('',(-7.071067811865E-1,0.E0,-7.071067811865E-1));
#1147=AXIS2_PLACEMENT_3D('',#1144,#1145,#1146);
#1148=CYLINDRICAL_SURFACE('',#1147,2.E0);
#1150=ORIENTED_EDGE('',*,*,#1149,.F.);
#1152=ORIENTED_EDGE('',*,*,#1151,.T.);
#1154=ORIENTED_EDGE('',*,*,#1153,.F.);
#1155=ORIENTED_EDGE('',*,*,#1092,.T.);
#1156=EDGE_LOOP('',(#1150,#1152,#1154,#1155));
#1157=FACE_OUTER_BOUND('',#1156,.F.);
#1158=ADVANCED_FACE('',(#1157),#1148,.T.);
#1159=CARTESIAN_POINT('',(-2.692388155425E0,1.5E1,-6.5E0));
#1160=DIRECTION('',(-7.071067811865E-1,0.E0,-7.071067811865E-1));
#1161=DIRECTION('',(-7.071067811865E-1,0.E0,7.071067811865E-1));
#1162=AXIS2_PLACEMENT_3D('',#1159,#1160,#1161);
#1163=PLANE('',#1162);
#1165=ORIENTED_EDGE('',*,*,#1164,.F.);
#1167=ORIENTED_EDGE('',*,*,#1166,.F.);
#1168=ORIENTED_EDGE('',*,*,#1149,.T.);
#1169=ORIENTED_EDGE('',*,*,#1122,.T.);
#1170=EDGE_LOOP('',(#1165,#1167,#1168,#1169));
#1171=FACE_OUTER_BOUND('',#1170,.F.);
#1172=ADVANCED_FACE('',(#1171),#1163,.T.);
#1173=CARTESIAN_POINT('',(-4.5E0,3.383308597755E2,-1.863961030679E0));
#1174=DIRECTION('',(0.E0,-1.E0,0.E0));
#1175=DIRECTION('',(-1.E0,0.E0,0.E0));
#1176=AXIS2_PLACEMENT_3D('',#1173,#1174,#1175);
#1177=CYLINDRICAL_SURFACE('',#1176,2.E0);
#1179=ORIENTED_EDGE('',*,*,#1178,.F.);
#1181=ORIENTED_EDGE('',*,*,#1180,.F.);
#1182=ORIENTED_EDGE('',*,*,#1164,.T.);
#1183=ORIENTED_EDGE('',*,*,#1120,.T.);
#1184=EDGE_LOOP('',(#1179,#1181,#1182,#1183));
#1185=FACE_OUTER_BOUND('',#1184,.F.);
#1186=ADVANCED_FACE('',(#1185),#1177,.T.);
#1187=CARTESIAN_POINT('',(-6.5E0,1.5E1,-2.692388155425E0));
#1188=DIRECTION('',(-1.E0,0.E0,0.E0));
#1189=DIRECTION('',(0.E0,0.E0,1.E0));
#1190=AXIS2_PLACEMENT_3D('',#1187,#1188,#1189);
#1191=PLANE('',#1190);
#1193=ORIENTED_EDGE('',*,*,#1192,.F.);
#1195=ORIENTED_EDGE('',*,*,#1194,.F.);
#1196=ORIENTED_EDGE('',*,*,#1178,.T.);
#1197=ORIENTED_EDGE('',*,*,#1118,.T.);
#1198=EDGE_LOOP('',(#1193,#1195,#1196,#1197));
#1199=FACE_OUTER_BOUND('',#1198,.F.);
#1200=ADVANCED_FACE('',(#1199),#1191,.T.);
#1201=CARTESIAN_POINT('',(-4.5E0,3.383308597755E2,1.863961030679E0));
#1202=DIRECTION('',(0.E0,-1.E0,0.E0));
#1203=DIRECTION('',(-7.071067811865E-1,0.E0,7.071067811865E-1));
#1204=AXIS2_PLACEMENT_3D('',#1201,#1202,#1203);
#1205=CYLINDRICAL_SURFACE('',#1204,2.E0);
#1207=ORIENTED_EDGE('',*,*,#1206,.F.);
#1209=ORIENTED_EDGE('',*,*,#1208,.F.);
#1210=ORIENTED_EDGE('',*,*,#1192,.T.);
#1211=ORIENTED_EDGE('',*,*,#1116,.T.);
#1212=EDGE_LOOP('',(#1207,#1209,#1210,#1211));
#1213=FACE_OUTER_BOUND('',#1212,.F.);
#1214=ADVANCED_FACE('',(#1213),#1205,.T.);
#1215=CARTESIAN_POINT('',(-6.5E0,1.5E1,2.692388155425E0));
#1216=DIRECTION('',(-7.071067811865E-1,0.E0,7.071067811865E-1));
#1217=DIRECTION('',(7.071067811865E-1,0.E0,7.071067811865E-1));
#1218=AXIS2_PLACEMENT_3D('',#1215,#1216,#1217);
#1219=PLANE('',#1218);
#1221=ORIENTED_EDGE('',*,*,#1220,.F.);
#1223=ORIENTED_EDGE('',*,*,#1222,.F.);
#1224=ORIENTED_EDGE('',*,*,#1206,.T.);
#1225=ORIENTED_EDGE('',*,*,#1114,.T.);
#1226=EDGE_LOOP('',(#1221,#1223,#1224,#1225));
#1227=FACE_OUTER_BOUND('',#1226,.F.);
#1228=ADVANCED_FACE('',(#1227),#1219,.T.);
#1229=CARTESIAN_POINT('',(-1.863961030679E0,3.348970025681E2,4.5E0));
#1230=DIRECTION('',(0.E0,-1.E0,0.E0));
#1231=DIRECTION('',(0.E0,0.E0,1.E0));
#1232=AXIS2_PLACEMENT_3D('',#1229,#1230,#1231);
#1233=CYLINDRICAL_SURFACE('',#1232,2.E0);
#1235=ORIENTED_EDGE('',*,*,#1234,.F.);
#1237=ORIENTED_EDGE('',*,*,#1236,.F.);
#1238=ORIENTED_EDGE('',*,*,#1220,.T.);
#1239=ORIENTED_EDGE('',*,*,#1112,.T.);
#1240=EDGE_LOOP('',(#1235,#1237,#1238,#1239));
#1241=FACE_OUTER_BOUND('',#1240,.F.);
#1242=ADVANCED_FACE('',(#1241),#1233,.T.);
#1243=CARTESIAN_POINT('',(-2.692388155425E0,1.5E1,6.5E0));
#1244=DIRECTION('',(0.E0,0.E0,1.E0));
#1245=DIRECTION('',(1.E0,0.E0,0.E0));
#1246=AXIS2_PLACEMENT_3D('',#1243,#1244,#1245);
#1247=PLANE('',#1246);
#1249=ORIENTED_EDGE('',*,*,#1248,.F.);
#1251=ORIENTED_EDGE('',*,*,#1250,.F.);
#1252=ORIENTED_EDGE('',*,*,#1234,.T.);
#1253=ORIENTED_EDGE('',*,*,#1110,.T.);
#1254=EDGE_LOOP('',(#1249,#1251,#1252,#1253));
#1255=FACE_OUTER_BOUND('',#1254,.F.);
#1256=ADVANCED_FACE('',(#1255),#1247,.T.);
#1257=CARTESIAN_POINT('',(1.863961030679E0,3.310763734520E2,4.5E0));
#1258=DIRECTION('',(0.E0,-1.E0,0.E0));
#1259=DIRECTION('',(7.071067811865E-1,0.E0,7.071067811865E-1));
#1260=AXIS2_PLACEMENT_3D('',#1257,#1258,#1259);
#1261=CYLINDRICAL_SURFACE('',#1260,2.E0);
#1263=ORIENTED_EDGE('',*,*,#1262,.F.);
#1265=ORIENTED_EDGE('',*,*,#1264,.F.);
#1266=ORIENTED_EDGE('',*,*,#1248,.T.);
#1267=ORIENTED_EDGE('',*,*,#1108,.T.);
#1268=EDGE_LOOP('',(#1263,#1265,#1266,#1267));
#1269=FACE_OUTER_BOUND('',#1268,.F.);
#1270=ADVANCED_FACE('',(#1269),#1261,.T.);
#1271=CARTESIAN_POINT('',(2.692388155425E0,1.5E1,6.5E0));
#1272=DIRECTION('',(7.071067811865E-1,0.E0,7.071067811865E-1));
#1273=DIRECTION('',(7.071067811865E-1,0.E0,-7.071067811865E-1));
#1274=AXIS2_PLACEMENT_3D('',#1271,#1272,#1273);
#1275=PLANE('',#1274);
#1277=ORIENTED_EDGE('',*,*,#1276,.F.);
#1279=ORIENTED_EDGE('',*,*,#1278,.F.);
#1280=ORIENTED_EDGE('',*,*,#1262,.T.);
#1281=ORIENTED_EDGE('',*,*,#1106,.T.);
#1282=EDGE_LOOP('',(#1277,#1279,#1280,#1281));
#1283=FACE_OUTER_BOUND('',#1282,.F.);
#1284=ADVANCED_FACE('',(#1283),#1275,.T.);
#1285=CARTESIAN_POINT('',(4.5E0,3.294361134595E2,1.863961030679E0));
#1286=DIRECTION('',(0.E0,-1.E0,0.E0));
#1287=DIRECTION('',(1.E0,0.E0,0.E0));
#1288=AXIS2_PLACEMENT_3D('',#1285,#1286,#1287);
#1289=CYLINDRICAL_SURFACE('',#1288,2.E0);
#1291=ORIENTED_EDGE('',*,*,#1290,.F.);
#1293=ORIENTED_EDGE('',*,*,#1292,.F.);
#1294=ORIENTED_EDGE('',*,*,#1276,.T.);
#1295=ORIENTED_EDGE('',*,*,#1104,.T.);
#1296=EDGE_LOOP('',(#1291,#1293,#1294,#1295));
#1297=FACE_OUTER_BOUND('',#1296,.F.);
#1298=ADVANCED_FACE('',(#1297),#1289,.T.);
#1299=CARTESIAN_POINT('',(6.5E0,1.5E1,2.692388155425E0));
#1300=DIRECTION('',(1.E0,0.E0,0.E0));
#1301=DIRECTION('',(0.E0,0.E0,-1.E0));
#1302=AXIS2_PLACEMENT_3D('',#1299,#1300,#1301);
#1303=PLANE('',#1302);
#1305=ORIENTED_EDGE('',*,*,#1304,.F.);
#1307=ORIENTED_EDGE('',*,*,#1306,.F.);
#1308=ORIENTED_EDGE('',*,*,#1290,.T.);
#1309=ORIENTED_EDGE('',*,*,#1102,.T.);
#1310=EDGE_LOOP('',(#1305,#1307,#1308,#1309));
#1311=FACE_OUTER_BOUND('',#1310,.F.);
#1312=ADVANCED_FACE('',(#1311),#1303,.T.);
#1313=CARTESIAN_POINT('',(4.5E0,3.291656469693E2,-1.863961030679E0));
#1314=DIRECTION('',(0.E0,-1.E0,0.E0));
#1315=DIRECTION('',(7.071067811865E-1,0.E0,-7.071067811865E-1));
#1316=AXIS2_PLACEMENT_3D('',#1313,#1314,#1315);
#1317=CYLINDRICAL_SURFACE('',#1316,2.E0);
#1319=ORIENTED_EDGE('',*,*,#1318,.F.);
#1321=ORIENTED_EDGE('',*,*,#1320,.F.);
#1322=ORIENTED_EDGE('',*,*,#1304,.T.);
#1323=ORIENTED_EDGE('',*,*,#1100,.T.);
#1324=EDGE_LOOP('',(#1319,#1321,#1322,#1323));
#1325=FACE_OUTER_BOUND('',#1324,.F.);
#1326=ADVANCED_FACE('',(#1325),#1317,.T.);
#1327=CARTESIAN_POINT('',(6.5E0,1.5E1,-2.692388155425E0));
#1328=DIRECTION('',(7.071067811865E-1,0.E0,-7.071067811865E-1));
#1329=DIRECTION('',(-7.071067811865E-1,0.E0,-7.071067811865E-1));
#1330=AXIS2_PLACEMENT_3D('',#1327,#1328,#1329);
#1331=PLANE('',#1330);
#1333=ORIENTED_EDGE('',*,*,#1332,.F.);
#1335=ORIENTED_EDGE('',*,*,#1334,.F.);
#1336=ORIENTED_EDGE('',*,*,#1318,.T.);
#1337=ORIENTED_EDGE('',*,*,#1098,.T.);
#1338=EDGE_LOOP('',(#1333,#1335,#1336,#1337));
#1339=FACE_OUTER_BOUND('',#1338,.F.);
#1340=ADVANCED_FACE('',(#1339),#1331,.T.);
#1341=CARTESIAN_POINT('',(1.863961030679E0,3.333220949800E2,-4.5E0));
#1342=DIRECTION('',(0.E0,-1.E0,0.E0));
#1343=DIRECTION('',(0.E0,0.E0,-1.E0));
#1344=AXIS2_PLACEMENT_3D('',#1341,#1342,#1343);
#1345=CYLINDRICAL_SURFACE('',#1344,2.E0);
#1347=ORIENTED_EDGE('',*,*,#1346,.F.);
#1349=ORIENTED_EDGE('',*,*,#1348,.F.);
#1350=ORIENTED_EDGE('',*,*,#1332,.T.);
#1351=ORIENTED_EDGE('',*,*,#1096,.T.);
#1352=EDGE_LOOP('',(#1347,#1349,#1350,#1351));
#1353=FACE_OUTER_BOUND('',#1352,.F.);
#1354=ADVANCED_FACE('',(#1353),#1345,.T.);
#1355=CARTESIAN_POINT('',(2.692388155425E0,1.5E1,-6.5E0));
#1356=DIRECTION('',(0.E0,0.E0,-1.E0));
#1357=DIRECTION('',(-1.E0,0.E0,0.E0));
#1358=AXIS2_PLACEMENT_3D('',#1355,#1356,#1357);
#1359=PLANE('',#1358);
#1360=ORIENTED_EDGE('',*,*,#1153,.T.);
#1362=ORIENTED_EDGE('',*,*,#1361,.F.);
#1363=ORIENTED_EDGE('',*,*,#1346,.T.);
#1364=ORIENTED_EDGE('',*,*,#1094,.T.);
#1365=EDGE_LOOP('',(#1360,#1362,#1363,#1364));
#1366=FACE_OUTER_BOUND('',#1365,.F.);
#1367=ADVANCED_FACE('',(#1366),#1359,.T.);
#1368=CARTESIAN_POINT('',(0.E0,1.75E1,0.E0));
#1369=DIRECTION('',(0.E0,-1.E0,0.E0));
#1370=DIRECTION('',(1.E0,0.E0,0.E0));
#1371=AXIS2_PLACEMENT_3D('',#1368,#1369,#1370);
#1372=PLANE('',#1371);
#1374=ORIENTED_EDGE('',*,*,#1373,.T.);
#1376=ORIENTED_EDGE('',*,*,#1375,.T.);
#1377=EDGE_LOOP('',(#1374,#1376));
#1378=FACE_OUTER_BOUND('',#1377,.F.);
#1379=ORIENTED_EDGE('',*,*,#1166,.T.);
#1380=ORIENTED_EDGE('',*,*,#1180,.T.);
#1381=ORIENTED_EDGE('',*,*,#1194,.T.);
#1382=ORIENTED_EDGE('',*,*,#1208,.T.);
#1383=ORIENTED_EDGE('',*,*,#1222,.T.);
#1384=ORIENTED_EDGE('',*,*,#1236,.T.);
#1385=ORIENTED_EDGE('',*,*,#1250,.T.);
#1386=ORIENTED_EDGE('',*,*,#1264,.T.);
#1387=ORIENTED_EDGE('',*,*,#1278,.T.);
#1388=ORIENTED_EDGE('',*,*,#1292,.T.);
#1389=ORIENTED_EDGE('',*,*,#1306,.T.);
#1390=ORIENTED_EDGE('',*,*,#1320,.T.);
#1391=ORIENTED_EDGE('',*,*,#1334,.T.);
#1392=ORIENTED_EDGE('',*,*,#1348,.T.);
#1393=ORIENTED_EDGE('',*,*,#1361,.T.);
#1394=ORIENTED_EDGE('',*,*,#1151,.F.);
#1395=EDGE_LOOP('',(#1379,#1380,#1381,#1382,#1383,#1384,#1385,#1386,#1387,#1388,
#1389,#1390,#1391,#1392,#1393,#1394));
#1396=FACE_BOUND('',#1395,.F.);
#1397=ADVANCED_FACE('',(#1378,#1396),#1372,.F.);
#1398=CARTESIAN_POINT('',(0.E0,1.75E1,0.E0));
#1399=DIRECTION('',(0.E0,-1.E0,0.E0));
#1400=DIRECTION('',(1.E0,0.E0,0.E0));
#1401=AXIS2_PLACEMENT_3D('',#1398,#1399,#1400);
#1402=CYLINDRICAL_SURFACE('',#1401,8.5E0);
#1403=ORIENTED_EDGE('',*,*,#1373,.F.);
#1405=ORIENTED_EDGE('',*,*,#1404,.T.);
#1407=ORIENTED_EDGE('',*,*,#1406,.T.);
#1409=ORIENTED_EDGE('',*,*,#1408,.F.);
#1410=EDGE_LOOP('',(#1403,#1405,#1407,#1409));
#1411=FACE_OUTER_BOUND('',#1410,.F.);
#1412=ADVANCED_FACE('',(#1411),#1402,.T.);
#1413=CARTESIAN_POINT('',(0.E0,1.75E1,0.E0));
#1414=DIRECTION('',(0.E0,-1.E0,0.E0));
#1415=DIRECTION('',(1.E0,0.E0,0.E0));
#1416=AXIS2_PLACEMENT_3D('',#1413,#1414,#1415);
#1417=CYLINDRICAL_SURFACE('',#1416,8.5E0);
#1418=ORIENTED_EDGE('',*,*,#1375,.F.);
#1419=ORIENTED_EDGE('',*,*,#1408,.T.);
#1421=ORIENTED_EDGE('',*,*,#1420,.T.);
#1422=ORIENTED_EDGE('',*,*,#1404,.F.);
#1423=EDGE_LOOP('',(#1418,#1419,#1421,#1422));
#1424=FACE_OUTER_BOUND('',#1423,.F.);
#1425=ADVANCED_FACE('',(#1424),#1417,.T.);
#1426=CARTESIAN_POINT('',(0.E0,2.E0,0.E0));
#1427=DIRECTION('',(0.E0,1.E0,0.E0));
#1428=DIRECTION('',(0.E0,0.E0,-1.E0));
#1429=AXIS2_PLACEMENT_3D('',#1426,#1427,#1428);
#1430=PLANE('',#1429);
#1431=ORIENTED_EDGE('',*,*,#1406,.F.);
#1432=ORIENTED_EDGE('',*,*,#1420,.F.);
#1433=EDGE_LOOP('',(#1431,#1432));
#1434=FACE_OUTER_BOUND('',#1433,.F.);
#1435=ORIENTED_EDGE('',*,*,#833,.T.);
#1436=ORIENTED_EDGE('',*,*,#847,.T.);
#1437=EDGE_LOOP('',(#1435,#1436));
#1438=FACE_BOUND('',#1437,.F.);
#1439=ADVANCED_FACE('',(#1434,#1438),#1430,.F.);
#1440=CLOSED_SHELL('',(#837,#851,#868,#884,#900,#913,#930,#949,#966,#982,#995,
#1009,#1026,#1042,#1058,#1071,#1086,#1131,#1143,#1158,#1172,#1186,#1200,#1214,
#1228,#1242,#1256,#1270,#1284,#1298,#1312,#1326,#1340,#1354,#1367,#1397,#1412,
#1425,#1439));
#1441=MANIFOLD_SOLID_BREP('',#1440);
#1443=DIMENSIONAL_EXPONENTS(0.E0,0.E0,0.E0,0.E0,0.E0,0.E0,0.E0);
#1445=PLANE_ANGLE_MEASURE_WITH_UNIT(PLANE_ANGLE_MEASURE(1.745329251994E-2),
#1444);
#1446=(CONVERSION_BASED_UNIT('DEGREE',#1445)NAMED_UNIT(*)PLANE_ANGLE_UNIT());
#1448=UNCERTAINTY_MEASURE_WITH_UNIT(LENGTH_MEASURE(5.E-3),#1442,'closure',
'Maximum model space distance between geometric entities at asserted connectivities');
#1449=(GEOMETRIC_REPRESENTATION_CONTEXT(3)GLOBAL_UNCERTAINTY_ASSIGNED_CONTEXT((
#1448))GLOBAL_UNIT_ASSIGNED_CONTEXT((#1442,#1446,#1447))REPRESENTATION_CONTEXT(
'ID1','3'));
#1451=APPLICATION_CONTEXT(
'CONFIGURATION CONTROLLED 3D DESIGNS OF MECHANICAL PARTS AND ASSEMBLIES');
#1452=APPLICATION_PROTOCOL_DEFINITION('international standard',
'config_control_design',1994,#1451);
#1453=DESIGN_CONTEXT('',#1451,'design');
#1454=MECHANICAL_CONTEXT('',#1451,'mechanical');
#1455=PRODUCT('PIPE_HOLDER','PIPE_HOLDER','NOT SPECIFIED',(#1454));
#1456=PRODUCT_DEFINITION_FORMATION_WITH_SPECIFIED_SOURCE('11','LAST_VERSION',
#1455,.MADE.);
#1460=PRODUCT_CATEGORY('part','');
#1461=PRODUCT_RELATED_PRODUCT_CATEGORY('detail','',(#1455));
#1462=PRODUCT_CATEGORY_RELATIONSHIP('','',#1460,#1461);
#1463=SECURITY_CLASSIFICATION_LEVEL('unclassified');
#1464=SECURITY_CLASSIFICATION('','',#1463);
#1465=CC_DESIGN_SECURITY_CLASSIFICATION(#1464,(#1456));
#1466=APPROVAL_STATUS('approved');
#1467=APPROVAL(#1466,'');
#1468=CC_DESIGN_APPROVAL(#1467,(#1464,#1456,#1457));
#1469=CALENDAR_DATE(126,2,3);
#1470=COORDINATED_UNIVERSAL_TIME_OFFSET(8,0,.AHEAD.);
#1471=LOCAL_TIME(21,23,2.4E1,#1470);
#1472=DATE_AND_TIME(#1469,#1471);
#1473=APPROVAL_DATE_TIME(#1472,#1467);
#1474=DATE_TIME_ROLE('creation_date');
#1475=CC_DESIGN_DATE_AND_TIME_ASSIGNMENT(#1472,#1474,(#1457));
#1476=DATE_TIME_ROLE('classification_date');
#1477=CC_DESIGN_DATE_AND_TIME_ASSIGNMENT(#1472,#1476,(#1464));
#1478=PERSON('UNSPECIFIED','UNSPECIFIED',$,$,$,$);
#1479=ORGANIZATION('UNSPECIFIED','UNSPECIFIED','UNSPECIFIED');
#1480=PERSON_AND_ORGANIZATION(#1478,#1479);
#1481=APPROVAL_ROLE('approver');
#1482=APPROVAL_PERSON_ORGANIZATION(#1480,#1467,#1481);
#1483=PERSON_AND_ORGANIZATION_ROLE('creator');
#1484=CC_DESIGN_PERSON_AND_ORGANIZATION_ASSIGNMENT(#1480,#1483,(#1456,#1457));
#1485=PERSON_AND_ORGANIZATION_ROLE('design_supplier');
#1486=CC_DESIGN_PERSON_AND_ORGANIZATION_ASSIGNMENT(#1480,#1485,(#1456));
#1487=PERSON_AND_ORGANIZATION_ROLE('classification_officer');
#1488=CC_DESIGN_PERSON_AND_ORGANIZATION_ASSIGNMENT(#1480,#1487,(#1464));
#1489=PERSON_AND_ORGANIZATION_ROLE('design_owner');
#1490=CC_DESIGN_PERSON_AND_ORGANIZATION_ASSIGNMENT(#1480,#1489,(#1455));
#1=DRAUGHTING_PRE_DEFINED_COLOUR('black');
#2=COLOUR_RGB('',0.E0,0.E0,4.7E-1);
#3=COLOUR_RGB('',0.E0,0.E0,6.E-1);
#4=COLOUR_RGB('',0.E0,0.E0,8.E-1);
#5=COLOUR_RGB('',0.E0,2.745098039216E-2,7.019607843137E-1);
#6=COLOUR_RGB('',0.E0,3.137254901961E-2,3.411764705882E-1);
#7=COLOUR_RGB('',0.E0,2.E-1,1.E0);
#8=COLOUR_RGB('',0.E0,3.3E-1,0.E0);
#9=COLOUR_RGB('',0.E0,3.3E-1,3.3E-1);
#10=COLOUR_RGB('',0.E0,4.E-1,0.E0);
#11=COLOUR_RGB('',0.E0,4.E-1,4.E-1);
#12=COLOUR_RGB('',0.E0,4.E-1,6.E-1);
#13=COLOUR_RGB('',0.E0,4.E-1,1.E0);
#14=COLOUR_RGB('',0.E0,5.019607843137E-1,5.019607843137E-1);
#15=COLOUR_RGB('',0.E0,6.E-1,0.E0);
#16=COLOUR_RGB('',0.E0,6.E-1,6.E-1);
#17=COLOUR_RGB('',0.E0,6.E-1,1.E0);
#18=COLOUR_RGB('',0.E0,6.274509803922E-1,3.764705882353E-1);
#19=COLOUR_RGB('',0.E0,8.E-1,0.E0);
#20=COLOUR_RGB('',0.E0,8.E-1,8.E-1);
#21=COLOUR_RGB('',0.E0,8.E-1,1.E0);
#22=COLOUR_RGB('',0.E0,9.3E-1,0.E0);
#23=COLOUR_RGB('',0.E0,9.3E-1,9.3E-1);
#24=DRAUGHTING_PRE_DEFINED_COLOUR('green');
#25=COLOUR_RGB('',0.E0,1.E0,2.E-1);
#26=COLOUR_RGB('',0.E0,1.E0,4.E-1);
#27=COLOUR_RGB('',0.E0,1.E0,6.E-1);
#28=COLOUR_RGB('',0.E0,1.E0,8.E-1);
#29=DRAUGHTING_PRE_DEFINED_COLOUR('cyan');
#30=COLOUR_RGB('',3.1E-2,2.E-1,6.27E-1);
#31=COLOUR_RGB('',3.529411764706E-2,5.137254901961E-1,1.725490196078E-1);
#32=COLOUR_RGB('',6.6667E-2,5.17647E-1,6.39216E-1);
#33=COLOUR_RGB('',7.E-2,7.E-2,1.E0);
#34=COLOUR_RGB('',7.E-2,6.E-1,3.E-1);
#35=COLOUR_RGB('',8.E-2,1.E-1,1.1E-1);
#36=COLOUR_RGB('',9.411764705882E-2,9.647058823529E-1,3.490196078431E-1);
#37=COLOUR_RGB('',9.803921568627E-2,9.803921568627E-2,4.392156862745E-1);
#38=COLOUR_RGB('',1.019607843137E-1,6.313725490196E-1,5.019607843137E-1);
#39=COLOUR_RGB('',1.058823529412E-1,6.823529411765E-1,1.E0);
#40=COLOUR_RGB('',1.176470588235E-1,5.647058823529E-1,1.E0);
#41=COLOUR_RGB('',1.254901960784E-1,6.980392156863E-1,6.666666666667E-1);
#42=COLOUR_RGB('',1.333333333333E-1,5.450980392157E-1,1.333333333333E-1);
#43=COLOUR_RGB('',1.372549019608E-1,4.039215686275E-1,7.254901960784E-1);
#44=COLOUR_RGB('',1.450980392157E-1,3.529411764706E-2,0.E0);
#45=COLOUR_RGB('',1.686274509804E-1,1.686274509804E-1,1.803921568627E-1);
#46=COLOUR_RGB('',1.803921568627E-1,5.450980392157E-1,3.411764705882E-1);
#47=COLOUR_RGB('',1.9E-1,2.3E-1,3.1E-1);
#48=COLOUR_RGB('',1.921568627451E-1,1.E0,5.098039215686E-1);
#49=COLOUR_RGB('',1.960784313725E-1,8.039215686275E-1,1.960784313725E-1);
#50=COLOUR_RGB('',2.E-1,2.E-1,6.E-1);
#51=COLOUR_RGB('',2.E-1,1.E0,0.E0);
#52=COLOUR_RGB('',2.E-1,1.E0,2.E-1);
#53=COLOUR_RGB('',2.E-1,1.E0,1.E0);
#54=COLOUR_RGB('',2.313725490196E-1,3.803921568627E-1,5.607843137255E-1);
#55=COLOUR_RGB('',2.352941176471E-1,7.019607843137E-1,4.431372549020E-1);
#56=COLOUR_RGB('',2.431372549020E-1,8.784313725490E-1,8.156862745098E-1);
#57=COLOUR_RGB('',2.470588235294E-1,5.921568627451E-1,6.313725490196E-1);
#58=COLOUR_RGB('',2.5098E-1,2.35294E-1,8.62745E-1);
#59=COLOUR_RGB('',2.549019607843E-1,4.117647058824E-1,1.E0);
#60=COLOUR_RGB('',2.58824E-1,7.80392E-1,8.86275E-1);
#61=COLOUR_RGB('',2.7E-1,0.E0,4.E-1);
#62=COLOUR_RGB('',2.7E-1,2.7E-1,0.E0);
#63=COLOUR_RGB('',2.7E-1,2.7E-1,1.E0);
#64=COLOUR_RGB('',2.745098039216E-1,5.098039215686E-1,7.058823529412E-1);
#65=COLOUR_RGB('',2.784313725490E-1,2.784313725490E-1,2.784313725490E-1);
#66=COLOUR_RGB('',2.823529411765E-1,2.392156862745E-1,5.450980392157E-1);
#67=COLOUR_RGB('',3.13725E-1,4.70588E-1,1.96078E-1);
#68=COLOUR_RGB('',3.2549E-1,4.98039E-1,9.84314E-1);
#69=COLOUR_RGB('',3.254901960784E-1,5.764705882353E-1,8.117647058824E-1);
#70=COLOUR_RGB('',3.3E-1,0.E0,0.E0);
#71=COLOUR_RGB('',3.3E-1,0.E0,3.3E-1);
#72=COLOUR_RGB('',3.3E-1,0.E0,5.3E-1);
#73=COLOUR_RGB('',3.450980392157E-1,3.647058823529E-1,3.725490196078E-1);
#74=COLOUR_RGB('',3.607843137255E-1,9.058823529412E-1,5.019607843137E-1);
#75=COLOUR_RGB('',3.725490196078E-1,6.196078431373E-1,6.274509803922E-1);
#76=COLOUR_RGB('',3.803921568627E-1,2.705882352941E-1,2.156862745098E-1);
#77=COLOUR_RGB('',3.803921568627E-1,4.392156862745E-1,5.960784313725E-1);
#78=COLOUR_RGB('',3.882352941176E-1,4.392156862745E-1,4.901960784314E-1);
#79=COLOUR_RGB('',3.921568627451E-1,5.843137254902E-1,9.294117647059E-1);
#80=COLOUR_RGB('',3.96078E-1,7.13725E-1,1.E0);
#81=COLOUR_RGB('',4.E-1,0.E0,4.E-1);
#82=COLOUR_RGB('',4.E-1,0.E0,6.7E-1);
#83=COLOUR_RGB('',4.E-1,1.3E-1,0.E0);
#84=COLOUR_RGB('',4.E-1,4.E-1,0.E0);
#85=COLOUR_RGB('',4.E-1,4.E-1,1.E0);
#86=COLOUR_RGB('',4.E-1,8.039215686275E-1,6.666666666667E-1);
#87=COLOUR_RGB('',4.E-1,1.E0,0.E0);
#88=COLOUR_RGB('',4.E-1,1.E0,4.E-1);
#89=COLOUR_RGB('',4.E-1,1.E0,1.E0);
#90=COLOUR_RGB('',4.117647058824E-1,0.E0,2.196078431373E-1);
#91=COLOUR_RGB('',4.156862745098E-1,3.529411764706E-1,8.039215686275E-1);
#92=COLOUR_RGB('',4.196078431373E-1,5.568627450980E-1,1.372549019608E-1);
#93=COLOUR_RGB('',4.235294117647E-1,1.E0,6.117647058824E-1);
#94=COLOUR_RGB('',4.392156862745E-1,5.019607843137E-1,2.509803921569E-1);
#95=COLOUR_RGB('',4.392156862745E-1,7.490196078431E-1,3.882352941176E-1);
#96=COLOUR_RGB('',4.666666666667E-1,5.333333333333E-1,6.E-1);
#97=COLOUR_RGB('',4.7E-1,0.E0,0.E0);
#98=COLOUR_RGB('',4.7E-1,0.E0,8.E-1);
#99=COLOUR_RGB('',4.705882352941E-1,1.960784313725E-1,1.E0);
#100=COLOUR_RGB('',4.7E-1,2.E-1,7.E-2);
#101=COLOUR_RGB('',4.705882352941E-1,3.137254901961E-1,3.333333333333E-1);
#102=COLOUR_RGB('',4.823529411765E-1,4.078431372549E-1,9.333333333333E-1);
#103=COLOUR_RGB('',4.980392156863E-1,1.E0,8.313725490196E-1);
#104=COLOUR_RGB('',5.019607843137E-1,0.E0,5.019607843137E-1);
#105=COLOUR_RGB('',5.019607843137E-1,5.019607843137E-1,0.E0);
#106=COLOUR_RGB('',5.01961E-1,5.01961E-1,5.01961E-1);
#107=COLOUR_RGB('',5.058823529412E-1,2.313725490196E-1,4.235294117647E-1);
#108=COLOUR_RGB('',5.098039215686E-1,3.960784313725E-1,1.058823529412E-1);
#109=COLOUR_RGB('',5.3E-1,0.E0,9.3E-1);
#110=COLOUR_RGB('',5.3E-1,2.7E-1,1.3E-1);
#111=COLOUR_RGB('',5.3E-1,5.3E-1,1.E0);
#112=COLOUR_RGB('',5.294117647059E-1,8.078431372549E-1,9.215686274510E-1);
#113=COLOUR_RGB('',5.333333333333E-1,7.333333333333E-1,4.392156862745E-1);
#114=COLOUR_RGB('',5.411764705882E-1,1.686274509804E-1,8.862745098039E-1);
#115=COLOUR_RGB('',5.5E-1,6.5E-1,7.3E-1);
#116=COLOUR_RGB('',5.607843137255E-1,7.372549019608E-1,5.607843137255E-1);
#117=COLOUR_RGB('',5.68627E-1,9.37255E-1,9.37255E-1);
#118=COLOUR_RGB('',5.764705882353E-1,4.392156862745E-1,8.588235294118E-1);
#119=COLOUR_RGB('',5.803921568627E-1,0.E0,8.274509803922E-1);
#120=COLOUR_RGB('',5.88235E-1,2.35294E-1,1.56863E-1);
#121=COLOUR_RGB('',6.E-1,0.E0,6.E-1);
#122=COLOUR_RGB('',6.E-1,1.960784313725E-1,8.E-1);
#123=COLOUR_RGB('',6.E-1,2.E-1,1.E0);
#124=COLOUR_RGB('',6.E-1,3.3E-1,2.E-1);
#125=COLOUR_RGB('',6.E-1,6.E-1,0.E0);
#126=COLOUR_RGB('',6.E-1,1.E0,6.E-1);
#127=COLOUR_RGB('',6.E-1,1.E0,1.E0);
#128=COLOUR_RGB('',6.23529E-1,6.23529E-1,6.23529E-1);
#129=COLOUR_RGB('',6.27451E-1,4.70588E-1,3.52941E-1);
#130=COLOUR_RGB('',6.352941176471E-1,6.156862745098E-1,2.E-1);
#131=COLOUR_RGB('',6.66667E-1,8.23529E-1,1.96078E-1);
#132=COLOUR_RGB('',6.66667E-1,8.23529E-1,5.88235E-1);
#133=COLOUR_RGB('',6.7E-1,0.E0,0.E0);
#134=COLOUR_RGB('',6.7E-1,4.E-1,2.7E-1);
#135=COLOUR_RGB('',6.7E-1,4.E-1,1.E0);
#136=COLOUR_RGB('',6.7E-1,6.7E-1,1.E0);
#137=COLOUR_RGB('',6.7E-1,1.E0,0.E0);
#138=COLOUR_RGB('',6.784313725490E-1,8.117647058824E-1,1.E0);
#139=COLOUR_RGB('',6.784313725490E-1,8.470588235294E-1,9.019607843137E-1);
#140=COLOUR_RGB('',6.784313725490E-1,1.E0,1.843137254902E-1);
#141=COLOUR_RGB('',6.980392156863E-1,1.333333333333E-1,1.333333333333E-1);
#142=COLOUR_RGB('',7.137254901961E-1,5.725490196078E-1,4.313725490196E-1);
#143=COLOUR_RGB('',7.17647E-1,1.68627E-1,4.43137E-1);
#144=COLOUR_RGB('',7.215686274510E-1,4.509803921569E-1,2.E-1);
#145=COLOUR_RGB('',7.215686274510E-1,5.254901960784E-1,4.313725490196E-2);
#146=COLOUR_RGB('',7.294117647059E-1,2.705882352941E-1,1.E0);
#147=COLOUR_RGB('',7.294117647059E-1,3.333333333333E-1,8.274509803922E-1);
#148=COLOUR_RGB('',7.294117647059E-1,4.E-1,0.E0);
#149=COLOUR_RGB('',7.3E-1,4.7E-1,3.3E-1);
#150=COLOUR_RGB('',7.372549019608E-1,5.607843137255E-1,5.607843137255E-1);
#151=COLOUR_RGB('',7.411764705882E-1,7.176470588235E-1,4.196078431373E-1);
#152=COLOUR_RGB('',7.490196078431E-1,4.549019607843E-1,5.803921568627E-1);
#153=COLOUR_RGB('',7.52941E-1,7.52941E-1,7.52941E-1);
#154=COLOUR_RGB('',7.803921568627E-1,8.235294117647E-2,5.215686274510E-1);
#155=COLOUR_RGB('',7.921568627451E-1,7.647058823529E-1,2.470588235294E-1);
#156=COLOUR_RGB('',8.E-1,0.E0,8.E-1);
#157=COLOUR_RGB('',8.E-1,5.3E-1,4.E-1);
#158=COLOUR_RGB('',8.E-1,6.E-1,1.E0);
#159=COLOUR_RGB('',8.E-1,8.E-1,0.E0);
#160=COLOUR_RGB('',8.E-1,8.E-1,1.E0);
#161=COLOUR_RGB('',8.E-1,1.E0,8.E-1);
#162=COLOUR_RGB('',8.E-1,1.E0,1.E0);
#163=COLOUR_RGB('',8.039215686275E-1,3.607843137255E-1,3.607843137255E-1);
#164=COLOUR_RGB('',8.03922E-1,5.88235E-1,1.96078E-1);
#165=COLOUR_RGB('',8.117647058824E-1,6.039215686275E-1,6.117647058824E-1);
#166=COLOUR_RGB('',8.117647058824E-1,8.705882352941E-1,4.196078431373E-1);
#167=COLOUR_RGB('',8.196078431373E-1,7.098039215686E-1,5.490196078431E-2);
#168=COLOUR_RGB('',8.235294117647E-1,4.117647058824E-1,1.176470588235E-1);
#169=COLOUR_RGB('',8.235294117647E-1,7.058823529412E-1,5.490196078431E-1);
#170=COLOUR_RGB('',8.274509803922E-1,8.274509803922E-1,8.274509803922E-1);
#171=COLOUR_RGB('',8.313725490196E-1,9.137254901961E-1,1.176470588235E-1);
#172=COLOUR_RGB('',8.392156862745E-1,8.E-1,7.137254901961E-1);
#173=COLOUR_RGB('',8.431372549020E-1,8.980392156863E-1,9.333333333333E-1);
#174=COLOUR_RGB('',8.549019607843E-1,6.470588235294E-1,1.254901960784E-1);
#175=COLOUR_RGB('',8.588235294118E-1,4.392156862745E-1,5.764705882353E-1);
#176=COLOUR_RGB('',8.627450980392E-1,7.843137254902E-2,2.352941176471E-1);
#177=COLOUR_RGB('',8.627450980392E-1,7.215686274510E-1,3.372549019608E-1);
#178=COLOUR_RGB('',8.666666666667E-1,6.274509803922E-1,8.666666666667E-1);
#179=COLOUR_RGB('',8.666666666667E-1,1.E0,4.823529411765E-1);
#180=COLOUR_RGB('',8.7E-1,0.E0,0.E0);
#181=COLOUR_RGB('',8.7E-1,6.E-1,4.7E-1);
#182=COLOUR_RGB('',8.745098039216E-1,3.568627450980E-1,0.E0);
#183=COLOUR_RGB('',8.901960784314E-1,8.274509803922E-1,6.156862745098E-1);
#184=COLOUR_RGB('',8.98039E-1,6.07843E-1,1.E0);
#185=COLOUR_RGB('',9.E-1,8.3E-1,1.2E-1);
#186=COLOUR_RGB('',9.09804E-1,3.68627E-1,8.19608E-1);
#187=COLOUR_RGB('',9.176470588235E-1,7.411764705882E-1,2.352941176471E-1);
#188=COLOUR_RGB('',9.3E-1,0.E0,9.3E-1);
#189=COLOUR_RGB('',9.3E-1,6.7E-1,5.3E-1);
#190=COLOUR_RGB('',9.3E-1,8.E-1,1.E0);
#191=COLOUR_RGB('',9.3E-1,9.3E-1,0.E0);
#192=COLOUR_RGB('',9.3E-1,1.E0,9.3E-1);
#193=COLOUR_RGB('',9.3E-1,1.E0,1.E0);
#194=COLOUR_RGB('',9.333333333333E-1,5.098039215686E-1,9.333333333333E-1);
#195=COLOUR_RGB('',9.333333333333E-1,9.098039215686E-1,6.666666666667E-1);
#196=COLOUR_RGB('',9.411764705882E-1,9.019607843137E-1,5.490196078431E-1);
#197=COLOUR_RGB('',9.568627450980E-1,6.431372549020E-1,3.764705882353E-1);
#198=DRAUGHTING_PRE_DEFINED_COLOUR('red');
#199=COLOUR_RGB('',1.E0,0.E0,2.705882352941E-1);
#200=COLOUR_RGB('',1.E0,0.E0,4.705882352941E-1);
#201=COLOUR_RGB('',1.E0,0.E0,7.803921568627E-1);
#202=DRAUGHTING_PRE_DEFINED_COLOUR('magenta');
#203=COLOUR_RGB('',1.E0,3.1E-2,3.1E-2);
#204=COLOUR_RGB('',1.E0,7.E-2,7.E-2);
#205=COLOUR_RGB('',1.E0,7.843137254902E-2,5.764705882353E-1);
#206=COLOUR_RGB('',1.E0,1.254901960784E-1,1.803921568627E-1);
#207=COLOUR_RGB('',1.E0,2.E-1,1.E0);
#208=COLOUR_RGB('',1.E0,2.7E-1,0.E0);
#209=COLOUR_RGB('',1.E0,2.7E-1,2.7E-1);
#210=COLOUR_RGB('',1.E0,2.745098039216E-1,6.862745098039E-1);
#211=COLOUR_RGB('',1.E0,3.882352941176E-1,2.784313725490E-1);
#212=COLOUR_RGB('',1.E0,4.E-1,1.E0);
#213=COLOUR_RGB('',1.E0,4.078431372549E-1,1.686274509804E-1);
#214=COLOUR_RGB('',1.E0,4.117647058824E-1,7.058823529412E-1);
#215=COLOUR_RGB('',1.E0,4.7E-1,0.E0);
#216=COLOUR_RGB('',1.E0,4.7E-1,4.7E-1);
#217=COLOUR_RGB('',1.E0,4.980392156863E-1,3.137254901961E-1);
#218=COLOUR_RGB('',1.E0,6.E-1,1.E0);
#219=COLOUR_RGB('',1.E0,6.7E-1,0.E0);
#220=COLOUR_RGB('',1.E0,6.7E-1,6.7E-1);
#221=COLOUR_RGB('',1.E0,7.3E-1,6.E-1);
#222=COLOUR_RGB('',1.E0,7.529411764706E-1,2.980392156863E-1);
#223=COLOUR_RGB('',1.E0,7.686274509804E-1,5.882352941176E-2);
#224=COLOUR_RGB('',1.E0,8.E-1,8.E-1);
#225=COLOUR_RGB('',1.E0,8.E-1,1.E0);
#226=COLOUR_RGB('',1.E0,8.078431372549E-1,4.588235294118E-1);
#227=COLOUR_RGB('',1.E0,8.7E-1,0.E0);
#228=COLOUR_RGB('',1.E0,9.215686274510E-1,8.039215686275E-1);
#229=COLOUR_RGB('',1.E0,9.3E-1,9.3E-1);
#230=COLOUR_RGB('',1.E0,9.3E-1,1.E0);
#231=DRAUGHTING_PRE_DEFINED_COLOUR('yellow');
#232=COLOUR_RGB('',1.E0,1.E0,1.3E-1);
#233=COLOUR_RGB('',1.E0,1.E0,3.3E-1);
#234=COLOUR_RGB('',1.E0,1.E0,5.3E-1);
#235=COLOUR_RGB('',1.E0,1.E0,7.3E-1);
#236=COLOUR_RGB('',1.E0,1.E0,9.3E-1);
#237=DRAUGHTING_PRE_DEFINED_COLOUR('white');
#246=CIRCLE('',#245,4.E0);
#255=CIRCLE('',#254,4.E0);
#260=CIRCLE('',#259,4.E0);
#265=CIRCLE('',#264,7.6E1);
#270=CIRCLE('',#269,4.E0);
#275=CIRCLE('',#274,4.E0);
#284=CIRCLE('',#283,4.E0);
#293=CIRCLE('',#292,4.E0);
#298=CIRCLE('',#297,8.4E1);
#303=CIRCLE('',#302,4.E0);
#308=CIRCLE('',#307,1.4E1);
#313=CIRCLE('',#312,1.4E1);
#318=CIRCLE('',#317,1.2E1);
#323=CIRCLE('',#322,1.2E1);
#332=CIRCLE('',#331,1.4E1);
#337=CIRCLE('',#336,1.4E1);
#342=CIRCLE('',#341,6.E0);
#351=CIRCLE('',#350,1.4E1);
#356=CIRCLE('',#355,1.4E1);
#361=CIRCLE('',#360,1.4E1);
#366=CIRCLE('',#365,1.E1);
#371=CIRCLE('',#370,6.E0);
#376=CIRCLE('',#375,1.E1);
#381=CIRCLE('',#380,1.4E1);
#394=CIRCLE('',#393,6.E0);
#399=CIRCLE('',#398,6.E0);
#404=CIRCLE('',#403,7.4E1);
#409=CIRCLE('',#408,6.E0);
#414=CIRCLE('',#413,6.E0);
#419=CIRCLE('',#418,8.6E1);
#424=CIRCLE('',#423,6.E0);
#433=CIRCLE('',#432,6.E0);
#442=CIRCLE('',#441,2.E0);
#451=CIRCLE('',#450,2.E0);
#460=CIRCLE('',#459,2.E0);
#469=CIRCLE('',#468,2.E0);
#478=CIRCLE('',#477,2.E0);
#487=CIRCLE('',#486,2.E0);
#496=CIRCLE('',#495,2.E0);
#505=CIRCLE('',#504,2.E0);
#514=CIRCLE('',#513,6.E0);
#519=CIRCLE('',#518,6.E0);
#524=CIRCLE('',#523,2.E0);
#597=CIRCLE('',#596,2.E0);
#606=CIRCLE('',#605,2.E0);
#615=CIRCLE('',#614,2.E0);
#624=CIRCLE('',#623,2.E0);
#633=CIRCLE('',#632,2.E0);
#642=CIRCLE('',#641,2.E0);
#651=CIRCLE('',#650,2.E0);
#660=CIRCLE('',#659,8.5E0);
#665=CIRCLE('',#664,8.5E0);
#678=CIRCLE('',#677,8.5E0);
#683=CIRCLE('',#682,8.5E0);
#688=CIRCLE('',#687,4.E0);
#693=CIRCLE('',#692,4.E0);
#827=EDGE_CURVE('',#728,#696,#241,.T.);
#829=EDGE_CURVE('',#697,#696,#246,.T.);
#831=EDGE_CURVE('',#697,#729,#250,.T.);
#833=EDGE_CURVE('',#728,#729,#688,.T.);
#844=EDGE_CURVE('',#696,#697,#255,.T.);
#847=EDGE_CURVE('',#729,#728,#693,.T.);
#857=EDGE_CURVE('',#718,#719,#260,.T.);
#859=EDGE_CURVE('',#718,#696,#265,.T.);
#862=EDGE_CURVE('',#721,#697,#298,.T.);
#864=EDGE_CURVE('',#719,#721,#270,.T.);
#876=EDGE_CURVE('',#709,#721,#288,.T.);
#878=EDGE_CURVE('',#708,#709,#275,.T.);
#880=EDGE_CURVE('',#708,#718,#279,.T.);
#890=EDGE_CURVE('',#721,#725,#293,.T.);
#892=EDGE_CURVE('',#725,#718,#303,.T.);
#895=EDGE_CURVE('',#708,#709,#284,.T.);
#919=EDGE_CURVE('',#745,#738,#308,.T.);
#921=EDGE_CURVE('',#741,#745,#313,.T.);
#923=EDGE_CURVE('',#741,#709,#318,.T.);
#926=EDGE_CURVE('',#738,#708,#323,.T.);
#936=EDGE_CURVE('',#732,#733,#332,.T.);
#938=EDGE_CURVE('',#743,#732,#361,.T.);
#940=EDGE_CURVE('',#745,#743,#346,.T.);
#943=EDGE_CURVE('',#738,#739,#351,.T.);
#945=EDGE_CURVE('',#739,#733,#327,.T.);
#956=EDGE_CURVE('',#733,#735,#337,.T.);
#958=EDGE_CURVE('',#705,#735,#376,.T.);
#960=EDGE_CURVE('',#704,#705,#342,.T.);
#962=EDGE_CURVE('',#704,#732,#366,.T.);
#974=EDGE_CURVE('',#739,#741,#356,.T.);
#978=EDGE_CURVE('',#735,#743,#381,.T.);
#1003=EDGE_CURVE('',#704,#705,#371,.T.);
#1015=EDGE_CURVE('',#715,#723,#394,.T.);
#1017=EDGE_CURVE('',#715,#705,#385,.T.);
#1020=EDGE_CURVE('',#712,#704,#389,.T.);
#1022=EDGE_CURVE('',#723,#712,#399,.T.);
#1034=EDGE_CURVE('',#712,#700,#404,.T.);
#1036=EDGE_CURVE('',#700,#701,#519,.T.);
#1038=EDGE_CURVE('',#715,#701,#419,.T.);
#1048=EDGE_CURVE('',#712,#713,#409,.T.);
#1050=EDGE_CURVE('',#713,#715,#414,.T.);
#1053=EDGE_CURVE('',#701,#700,#433,.T.);
#1077=EDGE_CURVE('',#748,#749,#424,.T.);
#1079=EDGE_CURVE('',#748,#700,#428,.T.);
#1082=EDGE_CURVE('',#701,#749,#437,.T.);
#1092=EDGE_CURVE('',#752,#753,#442,.T.);
#1094=EDGE_CURVE('',#765,#752,#446,.T.);
#1096=EDGE_CURVE('',#764,#765,#451,.T.);
#1098=EDGE_CURVE('',#769,#764,#455,.T.);
#1100=EDGE_CURVE('',#768,#769,#460,.T.);
#1102=EDGE_CURVE('',#773,#768,#464,.T.);
#1104=EDGE_CURVE('',#772,#773,#469,.T.);
#1106=EDGE_CURVE('',#777,#772,#473,.T.);
#1108=EDGE_CURVE('',#776,#777,#478,.T.);
#1110=EDGE_CURVE('',#781,#776,#482,.T.);
#1112=EDGE_CURVE('',#780,#781,#487,.T.);
#1114=EDGE_CURVE('',#761,#780,#491,.T.);
#1116=EDGE_CURVE('',#760,#761,#496,.T.);
#1118=EDGE_CURVE('',#757,#760,#500,.T.);
#1120=EDGE_CURVE('',#756,#757,#505,.T.);
#1122=EDGE_CURVE('',#753,#756,#509,.T.);
#1127=EDGE_CURVE('',#749,#748,#514,.T.);
#1149=EDGE_CURVE('',#792,#753,#528,.T.);
#1151=EDGE_CURVE('',#792,#821,#524,.T.);
#1153=EDGE_CURVE('',#752,#821,#584,.T.);
#1164=EDGE_CURVE('',#793,#756,#532,.T.);
#1166=EDGE_CURVE('',#792,#793,#592,.T.);
#1178=EDGE_CURVE('',#795,#757,#536,.T.);
#1180=EDGE_CURVE('',#793,#795,#597,.T.);
#1192=EDGE_CURVE('',#797,#760,#540,.T.);
#1194=EDGE_CURVE('',#795,#797,#601,.T.);
#1206=EDGE_CURVE('',#799,#761,#544,.T.);
#1208=EDGE_CURVE('',#797,#799,#606,.T.);
#1220=EDGE_CURVE('',#801,#780,#548,.T.);
#1222=EDGE_CURVE('',#799,#801,#610,.T.);
#1234=EDGE_CURVE('',#803,#781,#552,.T.);
#1236=EDGE_CURVE('',#801,#803,#615,.T.);
#1248=EDGE_CURVE('',#805,#776,#556,.T.);
#1250=EDGE_CURVE('',#803,#805,#619,.T.);
#1262=EDGE_CURVE('',#807,#777,#560,.T.);
#1264=EDGE_CURVE('',#805,#807,#624,.T.);
#1276=EDGE_CURVE('',#809,#772,#564,.T.);
#1278=EDGE_CURVE('',#807,#809,#628,.T.);
#1290=EDGE_CURVE('',#811,#773,#568,.T.);
#1292=EDGE_CURVE('',#809,#811,#633,.T.);
#1304=EDGE_CURVE('',#813,#768,#572,.T.);
#1306=EDGE_CURVE('',#811,#813,#637,.T.);
#1318=EDGE_CURVE('',#815,#769,#576,.T.);
#1320=EDGE_CURVE('',#813,#815,#642,.T.);
#1332=EDGE_CURVE('',#817,#764,#580,.T.);
#1334=EDGE_CURVE('',#815,#817,#646,.T.);
#1346=EDGE_CURVE('',#819,#765,#588,.T.);
#1348=EDGE_CURVE('',#817,#819,#651,.T.);
#1361=EDGE_CURVE('',#819,#821,#655,.T.);
#1373=EDGE_CURVE('',#784,#785,#660,.T.);
#1375=EDGE_CURVE('',#785,#784,#665,.T.);
#1404=EDGE_CURVE('',#784,#788,#669,.T.);
#1406=EDGE_CURVE('',#788,#789,#678,.T.);
#1408=EDGE_CURVE('',#785,#789,#673,.T.);
#1420=EDGE_CURVE('',#789,#788,#683,.T.);
#1442=(LENGTH_UNIT()NAMED_UNIT(*)SI_UNIT(.MILLI.,.METRE.));
#1444=(NAMED_UNIT(*)PLANE_ANGLE_UNIT()SI_UNIT($,.RADIAN.));
#1447=(NAMED_UNIT(*)SI_UNIT($,.STERADIAN.)SOLID_ANGLE_UNIT());
#1450=ADVANCED_BREP_SHAPE_REPRESENTATION('',(#1441),#1449);
#1457=PRODUCT_DEFINITION('design','',#1456,#1453);
#1458=PRODUCT_DEFINITION_SHAPE('','SHAPE FOR PIPE_HOLDER.',#1457);
#1459=SHAPE_DEFINITION_REPRESENTATION(#1458,#1450);
ENDSEC;
END-ISO-10303-21;
